<svg version="1.1" viewBox="0.0 0.0 640.0 320.0" fill="none" stroke="none" stroke-linecap="square" stroke-miterlimit="10" xmlns:xlink="http://www.w3.org/1999/xlink" xmlns="http://www.w3.org/2000/svg"><clipPath id="p.0"><path d="m0 0l640.0 0l0 320.0l-640.0 0l0 -320.0z" clip-rule="nonzero"/></clipPath><g clip-path="url(#p.0)"><path fill="#980000" d="m0 0l640.0 0l0 320.0l-640.0 0z" fill-rule="evenodd"/><path fill="#ffffff" d="m220.90784 7.4871817c-12.337509 0 -22.66832 1.1170616 -30.992416 3.3511915c-8.324112 2.23413 -14.994537 5.427986 -20.011307 9.581575c-5.016754 4.1535892 -8.565659 9.329842 -10.6466675 15.528763c-2.043869 6.167446 -3.0658112 13.215965 -3.0658112 21.145546l0 52.203068c0 3.461319 -0.6317291 6.891182 -1.8952179 10.289574c-1.2634735 3.3669205 -3.214447 6.356247 -5.8528748 8.967972c-2.6012878 2.6117249 -5.85289 4.7514496 -9.754822 6.4191895c-3.864746 1.636261 -8.528488 2.4543915 -13.99118 2.4543915l0 20.86235c5.4626923 0 10.126434 0.8338623 13.99118 2.501587c3.9019318 1.636261 7.153534 3.760254 9.754822 6.371994c2.6384277 2.580246 4.5894012 5.56958 5.8528748 8.967972c1.2634888 3.3983917 1.8952179 6.828247 1.8952179 10.289581l0 52.203064c0 7.9295807 1.0219421 14.978104 3.0658112 21.145538c2.081009 6.198944 5.6299133 11.422394 10.6466675 15.67038c5.0167694 4.247986 11.687195 7.4418335 20.011307 9.5815735c8.324097 2.13974 18.654907 3.2095947 30.992416 3.2095947l1.3935394 0l0 -21.192749c-13.006409 0 -22.315292 -1.9823914 -27.92662 -5.9472046c-5.574173 -3.9647827 -8.361267 -11.548218 -8.361267 -22.750336l0 -44.651077c0 -12.775436 -2.0066986 -22.640213 -6.020111 -29.59433c-4.0134125 -6.954132 -9.661896 -12.366364 -16.945496 -16.236755c7.2836 -3.8703918 12.932083 -9.282654 16.945496 -16.23677c4.0134125 -6.954109 6.020111 -16.818878 6.020111 -29.594322l0 -44.651085c0 -11.202106 2.787094 -18.785553 8.361267 -22.750343c5.6113434 -3.9647903 14.920212 -5.9471855 27.92662 -5.9471855l0 -21.192745z" fill-rule="evenodd"/><path fill="#ffffff" d="m323.30273 80.5998c-15.756317 0 -29.691772 0.8653259 -41.806305 2.595993c-12.077393 1.7306671 -21.757874 3.366928 -29.041473 4.908783l0 146.46124l31.828552 0l0 -127.29808c1.152008 -0.188797 3.0286255 -0.47200012 5.6299133 -0.8495941c2.6384583 -0.40907288 5.6113586 -0.75520325 8.918701 -1.0383987c3.3073425 -0.28320312 6.781891 -0.5192032 10.423706 -0.7080002c3.678955 -0.22026825 7.227844 -0.33039856 10.6466675 -0.33039856c8.435577 0 15.496216 0.92826843 21.181885 2.78479c5.722809 1.8250656 10.29364 4.767189 13.712463 8.826378c3.4559937 4.059189 5.9272156 9.377052 7.413666 15.95356c1.4864502 6.5765076 2.2296753 14.506088 2.2296753 23.788742l0 78.871l31.828552 0l0 -84.67659c0 -10.258102 -1.152008 -19.635147 -3.4559937 -28.131126c-2.2668457 -8.495979 -6.2059326 -15.780487 -11.817261 -21.853546c-5.574188 -6.104515 -13.043579 -10.840233 -22.408203 -14.207161c-9.3645935 -3.3983917 -21.12613 -5.0975876 -35.284546 -5.0975876z" fill-rule="evenodd"/><path fill="#ffffff" d="m417.15125 7.4871817l0 21.192745c13.006439 0 22.296722 1.9823952 27.87091 5.9471855c5.611328 3.9647903 8.416992 11.548237 8.416992 22.750343l0 44.651085c0 12.775444 1.9881287 22.640213 5.964386 29.594322c4.013397 6.954117 9.680481 12.366379 17.00122 16.23677c-7.3207397 3.8703918 -12.9878235 9.282623 -17.00122 16.236755c-3.9762573 6.954117 -5.964386 16.818893 -5.964386 29.59433l0 44.651077c0 11.202118 -2.805664 18.785553 -8.416992 22.750336c-5.574188 3.9648132 -14.864471 5.9472046 -27.87091 5.9472046l0 21.192749l1.3935547 0c12.337524 0 22.668335 -1.0698547 30.992432 -3.2095947c8.324097 -2.13974 14.994537 -5.3335876 20.011292 -9.5815735c5.016754 -4.247986 8.547058 -9.471436 10.590942 -15.67038c2.0810242 -6.1674347 3.121521 -13.215958 3.121521 -21.145538l0 -52.203064c0 -3.4613342 0.6317444 -6.8911896 1.8952332 -10.289581c1.2634888 -3.3983917 3.1958618 -6.387726 5.7971497 -8.967972c2.6384277 -2.61174 5.890045 -4.735733 9.754791 -6.371994c3.901947 -1.6677246 8.584259 -2.501587 14.046967 -2.501587l0 -20.86235c-5.4627075 0 -10.14502 -0.8181305 -14.046967 -2.4543915c-3.864746 -1.6677246 -7.116333 -3.8074493 -9.754791 -6.4191895c-2.6012878 -2.6117172 -4.5336914 -5.601036 -5.7971497 -8.967972c-1.2634888 -3.3983917 -1.8952332 -6.8282547 -1.8952332 -10.289574l0 -52.203068c0 -7.9295807 -1.0404968 -14.9781 -3.121521 -21.145546c-2.0438843 -6.198921 -5.574188 -11.375174 -10.590942 -15.528763c-5.016754 -4.1535892 -11.687195 -7.3474455 -20.011292 -9.581575c-8.324097 -2.23413 -18.654907 -3.3511915 -30.992432 -3.3511915z" fill-rule="evenodd"/><path stroke="#980000" stroke-width="1.0" stroke-linejoin="round" stroke-linecap="butt" d="m220.90784 7.4871817c-12.337509 0 -22.66832 1.1170616 -30.992416 3.3511915c-8.324112 2.23413 -14.994537 5.427986 -20.011307 9.581575c-5.016754 4.1535892 -8.565659 9.329842 -10.6466675 15.528763c-2.043869 6.167446 -3.0658112 13.215965 -3.0658112 21.145546l0 52.203068c0 3.461319 -0.6317291 6.891182 -1.8952179 10.289574c-1.2634735 3.3669205 -3.214447 6.356247 -5.8528748 8.967972c-2.6012878 2.6117249 -5.85289 4.7514496 -9.754822 6.4191895c-3.864746 1.636261 -8.528488 2.4543915 -13.99118 2.4543915l0 20.86235c5.4626923 0 10.126434 0.8338623 13.99118 2.501587c3.9019318 1.636261 7.153534 3.760254 9.754822 6.371994c2.6384277 2.580246 4.5894012 5.56958 5.8528748 8.967972c1.2634888 3.3983917 1.8952179 6.828247 1.8952179 10.289581l0 52.203064c0 7.9295807 1.0219421 14.978104 3.0658112 21.145538c2.081009 6.198944 5.6299133 11.422394 10.6466675 15.67038c5.0167694 4.247986 11.687195 7.4418335 20.011307 9.5815735c8.324097 2.13974 18.654907 3.2095947 30.992416 3.2095947l1.3935394 0l0 -21.192749c-13.006409 0 -22.315292 -1.9823914 -27.92662 -5.9472046c-5.574173 -3.9647827 -8.361267 -11.548218 -8.361267 -22.750336l0 -44.651077c0 -12.775436 -2.0066986 -22.640213 -6.020111 -29.59433c-4.0134125 -6.954132 -9.661896 -12.366364 -16.945496 -16.236755c7.2836 -3.8703918 12.932083 -9.282654 16.945496 -16.23677c4.0134125 -6.954109 6.020111 -16.818878 6.020111 -29.594322l0 -44.651085c0 -11.202106 2.787094 -18.785553 8.361267 -22.750343c5.6113434 -3.9647903 14.920212 -5.9471855 27.92662 -5.9471855l0 -21.192745z" fill-rule="evenodd"/><path stroke="#980000" stroke-width="1.0" stroke-linejoin="round" stroke-linecap="butt" d="m323.30273 80.5998c-15.756317 0 -29.691772 0.8653259 -41.806305 2.595993c-12.077393 1.7306671 -21.757874 3.366928 -29.041473 4.908783l0 146.46124l31.828552 0l0 -127.29808c1.152008 -0.188797 3.0286255 -0.47200012 5.6299133 -0.8495941c2.6384583 -0.40907288 5.6113586 -0.75520325 8.918701 -1.0383987c3.3073425 -0.28320312 6.781891 -0.5192032 10.423706 -0.7080002c3.678955 -0.22026825 7.227844 -0.33039856 10.6466675 -0.33039856c8.435577 0 15.496216 0.92826843 21.181885 2.78479c5.722809 1.8250656 10.29364 4.767189 13.712463 8.826378c3.4559937 4.059189 5.9272156 9.377052 7.413666 15.95356c1.4864502 6.5765076 2.2296753 14.506088 2.2296753 23.788742l0 78.871l31.828552 0l0 -84.67659c0 -10.258102 -1.152008 -19.635147 -3.4559937 -28.131126c-2.2668457 -8.495979 -6.2059326 -15.780487 -11.817261 -21.853546c-5.574188 -6.104515 -13.043579 -10.840233 -22.408203 -14.207161c-9.3645935 -3.3983917 -21.12613 -5.0975876 -35.284546 -5.0975876z" fill-rule="evenodd"/><path stroke="#980000" stroke-width="1.0" stroke-linejoin="round" stroke-linecap="butt" d="m417.15125 7.4871817l0 21.192745c13.006439 0 22.296722 1.9823952 27.87091 5.9471855c5.611328 3.9647903 8.416992 11.548237 8.416992 22.750343l0 44.651085c0 12.775444 1.9881287 22.640213 5.964386 29.594322c4.013397 6.954117 9.680481 12.366379 17.00122 16.23677c-7.3207397 3.8703918 -12.9878235 9.282623 -17.00122 16.236755c-3.9762573 6.954117 -5.964386 16.818893 -5.964386 29.59433l0 44.651077c0 11.202118 -2.805664 18.785553 -8.416992 22.750336c-5.574188 3.9648132 -14.864471 5.9472046 -27.87091 5.9472046l0 21.192749l1.3935547 0c12.337524 0 22.668335 -1.0698547 30.992432 -3.2095947c8.324097 -2.13974 14.994537 -5.3335876 20.011292 -9.5815735c5.016754 -4.247986 8.547058 -9.471436 10.590942 -15.67038c2.0810242 -6.1674347 3.121521 -13.215958 3.121521 -21.145538l0 -52.203064c0 -3.4613342 0.6317444 -6.8911896 1.8952332 -10.289581c1.2634888 -3.3983917 3.1958618 -6.387726 5.7971497 -8.967972c2.6384277 -2.61174 5.890045 -4.735733 9.754791 -6.371994c3.901947 -1.6677246 8.584259 -2.501587 14.046967 -2.501587l0 -20.86235c-5.4627075 0 -10.14502 -0.8181305 -14.046967 -2.4543915c-3.864746 -1.6677246 -7.116333 -3.8074493 -9.754791 -6.4191895c-2.6012878 -2.6117172 -4.5336914 -5.601036 -5.7971497 -8.967972c-1.2634888 -3.3983917 -1.8952332 -6.8282547 -1.8952332 -10.289574l0 -52.203068c0 -7.9295807 -1.0404968 -14.9781 -3.121521 -21.145546c-2.0438843 -6.198921 -5.574188 -11.375174 -10.590942 -15.528763c-5.016754 -4.1535892 -11.687195 -7.3474455 -20.011292 -9.581575c-8.324097 -2.23413 -18.654907 -3.3511915 -30.992432 -3.3511915z" fill-rule="evenodd"/><path fill="#ffffff" d="m241.66754 268.61185c-2.8379517 0 -5.3479156 0.11047363 -7.5299225 0.33145142c-2.1753082 0.22097778 -3.9188995 0.42990112 -5.230774 0.62677l0 18.700195l5.732773 0l0 -16.253448c0.20748901 -0.024108887 0.5455017 -0.060272217 1.0140228 -0.10845947c0.47521973 -0.052246094 1.0106812 -0.09643555 1.6063843 -0.13259888c0.5957031 -0.03616333 1.2215271 -0.06628418 1.8774567 -0.09039307c0.6626282 -0.028137207 1.3018341 -0.042175293 1.9176178 -0.042175293c1.5193787 0 2.791092 0.118499756 3.815155 0.3555603c1.0307617 0.23300171 1.8540344 0.6086731 2.469818 1.1269531c0.62246704 0.51828 1.0675659 1.1972656 1.3352966 2.0369568c0.2677307 0.83969116 0.40159607 1.8521423 0.40159607 3.0373535l0 10.070251l5.732773 0l0 -10.811523c0 -1.3097534 -0.20748901 -2.507019 -0.62246704 -3.5917969c-0.40829468 -1.0847473 -1.1177673 -2.014862 -2.1284637 -2.7902527c-1.0039825 -0.77941895 -2.3493195 -1.3840942 -4.036026 -1.8139648c-1.6867065 -0.43392944 -3.8051147 -0.6508789 -6.35524 -0.6508789z" fill-rule="evenodd"/><path fill="#ffffff" d="m267.1453 261.01846c-1.0240784 0 -1.8975525 0.20489502 -2.6204224 0.6147156c-0.7161865 0.40576172 -1.0742493 0.9541931 -1.0742493 1.6452332c0 0.69104004 0.35806274 1.2414551 1.0742493 1.6512451c0.7228699 0.40579224 1.596344 0.6086731 2.6204224 0.6086731c1.0307617 0 1.9042358 -0.20288086 2.6203918 -0.6086731c0.7228699 -0.40979004 1.0843201 -0.9602051 1.0843201 -1.6512451c0 -0.69104004 -0.3614502 -1.2394714 -1.0843201 -1.6452332c-0.716156 -0.40982056 -1.5896301 -0.6147156 -2.6203918 -0.6147156zm-2.8312683 7.997162l0 19.254639l5.732788 0l0 -19.254639z" fill-rule="evenodd"/><path fill="#ffffff" d="m294.2874 271.67932c1.7268677 0 3.0722046 0.03817749 4.0360413 0.11450195c0.97052 0.07232666 1.7435913 0.15872192 2.3192139 0.25915527l0 12.143372c-0.7027893 0.34552002 -1.7134705 0.6789856 -3.0320435 1.0003967c-1.3118896 0.32141113 -2.747589 0.4821167 -4.3070984 0.4821167c-1.6465454 0 -3.055481 -0.17877197 -4.2268066 -0.53634644c-1.1713257 -0.35757446 -2.1284485 -0.8517456 -2.871399 -1.4825134c-0.7362671 -0.6307678 -1.2717285 -1.3720398 -1.6063843 -2.2237854c-0.3279724 -0.8517456 -0.49194336 -1.7697754 -0.49194336 -2.7540894c0 -2.2458801 0.923645 -3.9734802 2.770996 -5.1828003c1.8540344 -1.2133179 4.3238525 -1.8200073 7.409424 -1.8200073zm-0.0602417 -3.0674744c-2.4697876 0 -4.6919556 0.23504639 -6.6664734 0.70510864c-1.9745178 0.46603394 -3.6611938 1.1309509 -5.060089 1.994751c-1.3922119 0.86380005 -2.469818 1.9204407 -3.2328491 3.1699524c-0.763031 1.2454834 -1.1445618 2.64563 -1.1445618 4.20047c0 1.4543762 0.31793213 2.800293 0.9537964 4.0377502c0.6425476 1.2333984 1.5796204 2.2940674 2.8111877 3.1819763c1.2315369 0.88790894 2.7408752 1.578949 4.5279846 2.07312c1.7937927 0.49417114 3.841919 0.74124146 6.144409 0.74124146c1.8540344 0 3.4871826 -0.14865112 4.8994446 -0.44595337c1.4189758 -0.29730225 2.4798584 -0.5805359 3.1826477 -0.84973145l0 7.701874l5.732788 0l0 -25.516174c-1.3520508 -0.1968689 -3.0487976 -0.41183472 -5.0902405 -0.6448364c-2.034729 -0.23303223 -4.3874207 -0.34954834 -7.0580444 -0.34954834z" fill-rule="evenodd"/><path fill="#ffffff" d="m321.8651 259.53595l-5.742798 0.59661865l0 23.099548c0 1.8280334 0.7395935 3.1739502 2.218811 4.0377502c1.4859009 0.86380005 3.9958801 1.3197937 7.529907 1.3680115l0.80319214 -2.8866882c-0.903595 -0.07232666 -1.666626 -0.16473389 -2.289093 -0.27722168c-0.6157837 -0.11248779 -1.107727 -0.27920532 -1.4758606 -0.5001831c-0.36813354 -0.22097778 -0.63586426 -0.51626587 -0.80319214 -0.8858948c-0.16064453 -0.3696289 -0.2409668 -0.83969116 -0.2409668 -1.4102173l0 -23.141724z" fill-rule="evenodd"/><path fill="#ffffff" d="m346.3455 271.57086c2.79776 0 5.0098877 0.6368103 6.6363525 1.9104004c1.6264648 1.2695618 2.4396973 2.99115 2.4396973 5.1647034c0 2.1695251 -0.8132324 3.8911133 -2.4396973 5.1647034c-1.6264648 1.2695618 -3.8385925 1.9043579 -6.6363525 1.9043579c-2.7911072 0 -4.999878 -0.63479614 -6.626343 -1.9043579c-1.6264343 -1.2735901 -2.4396667 -2.9951782 -2.4396667 -5.1647034c0 -2.1735535 0.8132324 -3.8951416 2.4396667 -5.1647034c1.6264648 -1.2735901 3.8352356 -1.9104004 6.626343 -1.9104004zm0 -3.0373535c-2.1753235 0 -4.189972 0.24105835 -6.0440063 0.72317505c-1.8473511 0.4821167 -3.4403381 1.1671448 -4.7789917 2.0550232c-1.3319702 0.88790894 -2.3694153 1.956604 -3.1123657 3.2061157c-0.74295044 1.2454529 -1.1144409 2.621521 -1.1144409 4.1281433c0 1.5267029 0.37149048 2.908783 1.1144409 4.1462097c0.74295044 1.233429 1.7803955 2.294098 3.1123657 3.1820068c1.3386536 0.88790894 2.9316406 1.5729065 4.7789917 2.0550232c1.8540344 0.4821167 3.8686829 0.72317505 6.0440063 0.72317505c2.1820068 0 4.1966553 -0.24105835 6.0440063 -0.72317505c1.8540344 -0.4821167 3.4470215 -1.1671143 4.7789917 -2.0550232c1.3386536 -0.88790894 2.3794556 -1.9485779 3.122406 -3.1820068c0.74295044 -1.2374268 1.1144104 -2.6195068 1.1144104 -4.1462097c0 -1.5066223 -0.37145996 -2.8826904 -1.1144104 -4.1281433c-0.74295044 -1.2495117 -1.7837524 -2.3182068 -3.122406 -3.2061157c-1.3319702 -0.8878784 -2.9249573 -1.5729065 -4.7789917 -2.0550232c-1.8473511 -0.4821167 -3.8619995 -0.72317505 -6.0440063 -0.72317505z" fill-rule="evenodd"/><path fill="#ffffff" d="m364.8599 269.01562c1.5996704 3.7766113 3.303131 7.2940674 5.1102905 10.552399c1.8138733 3.2583008 3.6679077 6.1590576 5.5621033 8.70224l4.989807 0c1.1512451 -1.7757874 2.362732 -3.804718 3.6344604 -6.0867615c1.2784119 -2.2860413 2.453064 -4.6624756 3.5239868 -7.1293335c1.0709229 2.466858 2.2522888 4.843292 3.5440674 7.1293335c1.2984924 2.2820435 2.5233765 4.310974 3.6746216 6.0867615l4.989807 0c1.8941956 -2.5431824 3.744873 -5.443939 5.552063 -8.70224c1.8138733 -3.2583313 3.5206604 -6.7757874 5.120331 -10.552399l-5.923523 0c-0.40829468 1.1611023 -0.90023804 2.4206543 -1.4758606 3.7786255c-0.57562256 1.3579407 -1.1947632 2.7159119 -1.8573914 4.073883c-0.6559143 1.3579712 -1.3218994 2.665741 -1.9979248 3.9232483c-0.6760254 1.2575378 -1.3252563 2.3563538 -1.9477539 3.2965088c-0.69607544 -1.1611023 -1.385498 -2.3885193 -2.0682068 -3.68219c-0.6760254 -1.297699 -1.3219299 -2.607483 -1.9376831 -3.9292908c-0.6157837 -1.3218079 -1.1914062 -2.6174927 -1.7268677 -3.887085c-0.5354614 -1.2695618 -0.98727417 -2.4608154 -1.3553772 -3.5737l-4.748871 0c-0.41497803 1.1128845 -0.90023804 2.3041382 -1.45578 3.5737c-0.54885864 1.2695923 -1.1345215 2.565277 -1.7569885 3.887085c-0.6157837 1.3218384 -1.2650146 2.6315918 -1.9477234 3.9292908c-0.6760254 1.2936707 -1.3620911 2.5210876 -2.058197 3.68219c-0.6157837 -0.940155 -1.2750549 -2.038971 -1.9778442 -3.2965088c-0.69610596 -1.2575073 -1.3654175 -2.565277 -2.007965 -3.9232483c-0.63586426 -1.3579712 -1.2416077 -2.7159119 -1.8172302 -4.073883c-0.57562256 -1.3579712 -1.0675659 -2.6175232 -1.4758606 -3.7786255z" fill-rule="evenodd"/><path stroke="#ffffff" stroke-width="1.0" stroke-linejoin="round" stroke-linecap="butt" d="m241.66754 268.61185c-2.8379517 0 -5.3479156 0.11047363 -7.5299225 0.33145142c-2.1753082 0.22097778 -3.9188995 0.42990112 -5.230774 0.62677l0 18.700195l5.732773 0l0 -16.253448c0.20748901 -0.024108887 0.5455017 -0.060272217 1.0140228 -0.10845947c0.47521973 -0.052246094 1.0106812 -0.09643555 1.6063843 -0.13259888c0.5957031 -0.03616333 1.2215271 -0.06628418 1.8774567 -0.09039307c0.6626282 -0.028137207 1.3018341 -0.042175293 1.9176178 -0.042175293c1.5193787 0 2.791092 0.118499756 3.815155 0.3555603c1.0307617 0.23300171 1.8540344 0.6086731 2.469818 1.1269531c0.62246704 0.51828 1.0675659 1.1972656 1.3352966 2.0369568c0.2677307 0.83969116 0.40159607 1.8521423 0.40159607 3.0373535l0 10.070251l5.732773 0l0 -10.811523c0 -1.3097534 -0.20748901 -2.507019 -0.62246704 -3.5917969c-0.40829468 -1.0847473 -1.1177673 -2.014862 -2.1284637 -2.7902527c-1.0039825 -0.77941895 -2.3493195 -1.3840942 -4.036026 -1.8139648c-1.6867065 -0.43392944 -3.8051147 -0.6508789 -6.35524 -0.6508789z" fill-rule="evenodd"/><path stroke="#ffffff" stroke-width="1.0" stroke-linejoin="round" stroke-linecap="butt" d="m267.1453 261.01846c-1.0240784 0 -1.8975525 0.20489502 -2.6204224 0.6147156c-0.7161865 0.40576172 -1.0742493 0.9541931 -1.0742493 1.6452332c0 0.69104004 0.35806274 1.2414551 1.0742493 1.6512451c0.7228699 0.40579224 1.596344 0.6086731 2.6204224 0.6086731c1.0307617 0 1.9042358 -0.20288086 2.6203918 -0.6086731c0.7228699 -0.40979004 1.0843201 -0.9602051 1.0843201 -1.6512451c0 -0.69104004 -0.3614502 -1.2394714 -1.0843201 -1.6452332c-0.716156 -0.40982056 -1.5896301 -0.6147156 -2.6203918 -0.6147156zm-2.8312683 7.997162l0 19.254639l5.732788 0l0 -19.254639z" fill-rule="evenodd"/><path stroke="#ffffff" stroke-width="1.0" stroke-linejoin="round" stroke-linecap="butt" d="m294.2874 271.67932c1.7268677 0 3.0722046 0.03817749 4.0360413 0.11450195c0.97052 0.07232666 1.7435913 0.15872192 2.3192139 0.25915527l0 12.143372c-0.7027893 0.34552002 -1.7134705 0.6789856 -3.0320435 1.0003967c-1.3118896 0.32141113 -2.747589 0.4821167 -4.3070984 0.4821167c-1.6465454 0 -3.055481 -0.17877197 -4.2268066 -0.53634644c-1.1713257 -0.35757446 -2.1284485 -0.8517456 -2.871399 -1.4825134c-0.7362671 -0.6307678 -1.2717285 -1.3720398 -1.6063843 -2.2237854c-0.3279724 -0.8517456 -0.49194336 -1.7697754 -0.49194336 -2.7540894c0 -2.2458801 0.923645 -3.9734802 2.770996 -5.1828003c1.8540344 -1.2133179 4.3238525 -1.8200073 7.409424 -1.8200073zm-0.0602417 -3.0674744c-2.4697876 0 -4.6919556 0.23504639 -6.6664734 0.70510864c-1.9745178 0.46603394 -3.6611938 1.1309509 -5.060089 1.994751c-1.3922119 0.86380005 -2.469818 1.9204407 -3.2328491 3.1699524c-0.763031 1.2454834 -1.1445618 2.64563 -1.1445618 4.20047c0 1.4543762 0.31793213 2.800293 0.9537964 4.0377502c0.6425476 1.2333984 1.5796204 2.2940674 2.8111877 3.1819763c1.2315369 0.88790894 2.7408752 1.578949 4.5279846 2.07312c1.7937927 0.49417114 3.841919 0.74124146 6.144409 0.74124146c1.8540344 0 3.4871826 -0.14865112 4.8994446 -0.44595337c1.4189758 -0.29730225 2.4798584 -0.5805359 3.1826477 -0.84973145l0 7.701874l5.732788 0l0 -25.516174c-1.3520508 -0.1968689 -3.0487976 -0.41183472 -5.0902405 -0.6448364c-2.034729 -0.23303223 -4.3874207 -0.34954834 -7.0580444 -0.34954834z" fill-rule="evenodd"/><path stroke="#ffffff" stroke-width="1.0" stroke-linejoin="round" stroke-linecap="butt" d="m321.8651 259.53595l-5.742798 0.59661865l0 23.099548c0 1.8280334 0.7395935 3.1739502 2.218811 4.0377502c1.4859009 0.86380005 3.9958801 1.3197937 7.529907 1.3680115l0.80319214 -2.8866882c-0.903595 -0.07232666 -1.666626 -0.16473389 -2.289093 -0.27722168c-0.6157837 -0.11248779 -1.107727 -0.27920532 -1.4758606 -0.5001831c-0.36813354 -0.22097778 -0.63586426 -0.51626587 -0.80319214 -0.8858948c-0.16064453 -0.3696289 -0.2409668 -0.83969116 -0.2409668 -1.4102173l0 -23.141724z" fill-rule="evenodd"/><path stroke="#ffffff" stroke-width="1.0" stroke-linejoin="round" stroke-linecap="butt" d="m346.3455 271.57086c2.79776 0 5.0098877 0.6368103 6.6363525 1.9104004c1.6264648 1.2695618 2.4396973 2.99115 2.4396973 5.1647034c0 2.1695251 -0.8132324 3.8911133 -2.4396973 5.1647034c-1.6264648 1.2695618 -3.8385925 1.9043579 -6.6363525 1.9043579c-2.7911072 0 -4.999878 -0.63479614 -6.626343 -1.9043579c-1.6264343 -1.2735901 -2.4396667 -2.9951782 -2.4396667 -5.1647034c0 -2.1735535 0.8132324 -3.8951416 2.4396667 -5.1647034c1.6264648 -1.2735901 3.8352356 -1.9104004 6.626343 -1.9104004zm0 -3.0373535c-2.1753235 0 -4.189972 0.24105835 -6.0440063 0.72317505c-1.8473511 0.4821167 -3.4403381 1.1671448 -4.7789917 2.0550232c-1.3319702 0.88790894 -2.3694153 1.956604 -3.1123657 3.2061157c-0.74295044 1.2454529 -1.1144409 2.621521 -1.1144409 4.1281433c0 1.5267029 0.37149048 2.908783 1.1144409 4.1462097c0.74295044 1.233429 1.7803955 2.294098 3.1123657 3.1820068c1.3386536 0.88790894 2.9316406 1.5729065 4.7789917 2.0550232c1.8540344 0.4821167 3.8686829 0.72317505 6.0440063 0.72317505c2.1820068 0 4.1966553 -0.24105835 6.0440063 -0.72317505c1.8540344 -0.4821167 3.4470215 -1.1671143 4.7789917 -2.0550232c1.3386536 -0.88790894 2.3794556 -1.9485779 3.122406 -3.1820068c0.74295044 -1.2374268 1.1144104 -2.6195068 1.1144104 -4.1462097c0 -1.5066223 -0.37145996 -2.8826904 -1.1144104 -4.1281433c-0.74295044 -1.2495117 -1.7837524 -2.3182068 -3.122406 -3.2061157c-1.3319702 -0.8878784 -2.9249573 -1.5729065 -4.7789917 -2.0550232c-1.8473511 -0.4821167 -3.8619995 -0.72317505 -6.0440063 -0.72317505z" fill-rule="evenodd"/><path stroke="#ffffff" stroke-width="1.0" stroke-linejoin="round" stroke-linecap="butt" d="m364.8599 269.01562c1.5996704 3.7766113 3.303131 7.2940674 5.1102905 10.552399c1.8138733 3.2583008 3.6679077 6.1590576 5.5621033 8.70224l4.989807 0c1.1512451 -1.7757874 2.362732 -3.804718 3.6344604 -6.0867615c1.2784119 -2.2860413 2.453064 -4.6624756 3.5239868 -7.1293335c1.0709229 2.466858 2.2522888 4.843292 3.5440674 7.1293335c1.2984924 2.2820435 2.5233765 4.310974 3.6746216 6.0867615l4.989807 0c1.8941956 -2.5431824 3.744873 -5.443939 5.552063 -8.70224c1.8138733 -3.2583313 3.5206604 -6.7757874 5.120331 -10.552399l-5.923523 0c-0.40829468 1.1611023 -0.90023804 2.4206543 -1.4758606 3.7786255c-0.57562256 1.3579407 -1.1947632 2.7159119 -1.8573914 4.073883c-0.6559143 1.3579712 -1.3218994 2.665741 -1.9979248 3.9232483c-0.6760254 1.2575378 -1.3252563 2.3563538 -1.9477539 3.2965088c-0.69607544 -1.1611023 -1.385498 -2.3885193 -2.0682068 -3.68219c-0.6760254 -1.297699 -1.3219299 -2.607483 -1.9376831 -3.9292908c-0.6157837 -1.3218079 -1.1914062 -2.6174927 -1.7268677 -3.887085c-0.5354614 -1.2695618 -0.98727417 -2.4608154 -1.3553772 -3.5737l-4.748871 0c-0.41497803 1.1128845 -0.90023804 2.3041382 -1.45578 3.5737c-0.54885864 1.2695923 -1.1345215 2.565277 -1.7569885 3.887085c-0.6157837 1.3218384 -1.2650146 2.6315918 -1.9477234 3.9292908c-0.6760254 1.2936707 -1.3620911 2.5210876 -2.058197 3.68219c-0.6157837 -0.940155 -1.2750549 -2.038971 -1.9778442 -3.2965088c-0.69610596 -1.2575073 -1.3654175 -2.565277 -2.007965 -3.9232483c-0.63586426 -1.3579712 -1.2416077 -2.7159119 -1.8172302 -4.073883c-0.57562256 -1.3579712 -1.0675659 -2.6175232 -1.4758606 -3.7786255z" fill-rule="evenodd"/><path fill="#000000" fill-opacity="0.0" d="m6.4871407 280.2035l633.54333 0l0 48.97638l-633.54333 0z" fill-rule="evenodd"/><path fill="#ffffff" d="m29.488087 304.59912q-0.46875 -0.390625 -1.375 -0.75q-0.890625 -0.359375 -1.953125 -0.359375q-1.109375 0 -1.921875 0.40625q-0.796875 0.40625 -1.296875 1.125q-0.5 0.703125 -0.734375 1.6875q-0.21875 0.96875 -0.21875 2.09375q0 2.546875 1.25 3.9375q1.265625 1.390625 3.375 1.390625q1.0625 0 1.765625 -0.09375q0.71875 -0.109375 1.109375 -0.21875l0 -9.21875zm0 -9.796875l2.609375 -0.453125l0 21.3125q-0.890625 0.25 -2.296875 0.5q-1.390625 0.265625 -3.21875 0.265625q-1.671875 0 -3.015625 -0.53125q-1.34375 -0.546875 -2.296875 -1.515625q-0.953125 -0.984375 -1.484375 -2.390625q-0.515625 -1.421875 -0.515625 -3.1875q0 -1.671875 0.4375 -3.078125q0.4375 -1.40625 1.265625 -2.40625q0.84375 -1.015625 2.0625 -1.5625q1.21875 -0.5625 2.796875 -0.5625q1.25 0 2.21875 0.34375q0.96875 0.328125 1.4375 0.625l0 -7.359375zm6.2733154 14.03125q0 -1.9375 0.5625 -3.375q0.5625 -1.4375 1.484375 -2.390625q0.921875 -0.953125 2.125 -1.421875q1.203125 -0.484375 2.46875 -0.484375q2.9375 0 4.5 1.84375q1.578125 1.828125 1.578125 5.578125q0 0.15625 0 0.4375q0 0.265625 -0.03125 0.484375l-9.96875 0q0.171875 2.265625 1.3125 3.453125q1.15625 1.171875 3.59375 1.171875q1.375 0 2.3125 -0.234375q0.9375 -0.25 1.40625 -0.46875l0.359375 2.1875q-0.46875 0.25 -1.65625 0.53125q-1.1875 0.28125 -2.703125 0.28125q-1.90625 0 -3.296875 -0.578125q-1.375 -0.578125 -2.28125 -1.578125q-0.890625 -1.015625 -1.328125 -2.390625q-0.4375 -1.390625 -0.4375 -3.046875zm10.0 -1.4375q0.03125 -1.75 -0.890625 -2.890625q-0.90625 -1.140625 -2.5 -1.140625q-0.890625 0 -1.578125 0.359375q-0.6875 0.34375 -1.171875 0.90625q-0.46875 0.5625 -0.734375 1.296875q-0.265625 0.71875 -0.34375 1.46875l7.21875 0zm9.855194 6.8125q1.59375 0 2.359375 -0.421875q0.78125 -0.421875 0.78125 -1.34375q0 -0.953125 -0.765625 -1.515625q-0.75 -0.5625 -2.484375 -1.25q-0.84375 -0.34375 -1.609375 -0.6875q-0.765625 -0.359375 -1.328125 -0.828125q-0.5625 -0.484375 -0.90625 -1.15625q-0.328125 -0.671875 -0.328125 -1.640625q0 -1.9375 1.421875 -3.0625q1.4375 -1.140625 3.890625 -1.140625q0.625 0 1.234375 0.078125q0.625 0.0625 1.15625 0.15625q0.53125 0.09375 0.9375 0.21875q0.40625 0.109375 0.625 0.1875l-0.46875 2.234375q-0.421875 -0.21875 -1.328125 -0.453125q-0.890625 -0.234375 -2.15625 -0.234375q-1.078125 0 -1.890625 0.4375q-0.8125 0.421875 -0.8125 1.34375q0 0.484375 0.171875 0.84375q0.1875 0.359375 0.5625 0.65625q0.375 0.296875 0.9375 0.546875q0.5625 0.25 1.34375 0.53125q1.046875 0.390625 1.84375 0.78125q0.8125 0.375 1.390625 0.875q0.578125 0.5 0.875 1.21875q0.3125 0.71875 0.3125 1.75q0 2.015625 -1.5 3.0625q-1.484375 1.03125 -4.265625 1.03125q-1.921875 0 -3.015625 -0.328125q-1.09375 -0.328125 -1.484375 -0.484375l0.46875 -2.25q0.453125 0.171875 1.421875 0.515625q0.984375 0.328125 2.609375 0.328125zm11.706806 1.875l-2.609375 0l0 -14.5625l2.609375 0l0 14.5625zm-1.3125 -17.1875q-0.703125 0 -1.203125 -0.453125q-0.484375 -0.46875 -0.484375 -1.265625q0 -0.78125 0.484375 -1.234375q0.5 -0.46875 1.203125 -0.46875q0.703125 0 1.1875 0.46875q0.484375 0.453125 0.484375 1.234375q0 0.796875 -0.484375 1.265625q-0.484375 0.453125 -1.1875 0.453125zm14.92778 15.734375q-0.34375 0.21875 -1.3125 0.578125q-0.96875 0.34375 -2.25 0.34375q-1.3125 0 -2.484375 -0.421875q-1.15625 -0.421875 -2.03125 -1.296875q-0.859375 -0.890625 -1.375 -2.203125q-0.5 -1.3125 -0.5 -3.140625q0 -1.59375 0.46875 -2.921875q0.484375 -1.328125 1.390625 -2.296875q0.921875 -0.96875 2.234375 -1.515625q1.3125 -0.546875 2.96875 -0.546875q1.8125 0 3.171875 0.265625q1.359375 0.265625 2.28125 0.5l0 12.984375q0 3.359375 -1.734375 4.875q-1.734375 1.515625 -5.265625 1.515625q-1.359375 0 -2.578125 -0.234375q-1.21875 -0.21875 -2.125 -0.515625l0.484375 -2.28125q0.78125 0.3125 1.90625 0.546875q1.140625 0.25 2.375 0.25q2.328125 0 3.34375 -0.9375q1.03125 -0.921875 1.03125 -2.9375l0 -0.609375zm-0.03125 -10.8125q-0.390625 -0.109375 -1.0625 -0.203125q-0.65625 -0.109375 -1.765625 -0.109375q-2.109375 0 -3.25 1.375q-1.125 1.375 -1.125 3.640625q0 1.265625 0.3125 2.15625q0.328125 0.890625 0.875 1.484375q0.546875 0.59375 1.265625 0.875q0.71875 0.28125 1.46875 0.28125q1.03125 0 1.90625 -0.296875q0.875 -0.296875 1.375 -0.6875l0 -8.515625zm7.074692 -1.875q0.90625 -0.21875 2.390625 -0.46875q1.484375 -0.265625 3.40625 -0.265625q1.734375 0 2.875 0.5q1.15625 0.484375 1.84375 1.375q0.6875 0.875 0.96875 2.109375q0.28125 1.234375 0.28125 2.71875l0 8.171875l-2.609375 0l0 -7.609375q0 -1.34375 -0.1875 -2.296875q-0.171875 -0.953125 -0.59375 -1.546875q-0.421875 -0.59375 -1.125 -0.859375q-0.6875 -0.265625 -1.734375 -0.265625q-0.40625 0 -0.859375 0.03125q-0.453125 0.03125 -0.859375 0.078125q-0.40625 0.03125 -0.734375 0.09375q-0.3125 0.0625 -0.453125 0.078125l0 12.296875l-2.609375 0l0 -14.140625zm26.618225 12.625q0 0.765625 -0.5 1.328125q-0.5 0.546875 -1.375 0.546875q-0.859375 0 -1.375 -0.546875q-0.5 -0.5625 -0.5 -1.328125q0 -0.75 0.5 -1.3125q0.515625 -0.5625 1.375 -0.5625q0.875 0 1.375 0.5625q0.5 0.5625 0.5 1.3125zm10.0 0q0 0.765625 -0.5 1.328125q-0.5 0.546875 -1.375 0.546875q-0.859375 0 -1.375 -0.546875q-0.5 -0.5625 -0.5 -1.328125q0 -0.75 0.5 -1.3125q0.515625 -0.5625 1.375 -0.5625q0.875 0 1.375 0.5625q0.5 0.5625 0.5 1.3125zm8.999992 0q0 0.765625 -0.5 1.328125q-0.5 0.546875 -1.375 0.546875q-0.859375 0 -1.375 -0.546875q-0.5 -0.5625 -0.5 -1.328125q0 -0.75 0.5 -1.3125q0.515625 -0.5625 1.375 -0.5625q0.875 0 1.375 0.5625q0.5 0.5625 0.5 1.3125zm14.668655 -0.359375q1.59375 0 2.359375 -0.421875q0.78125 -0.421875 0.78125 -1.34375q0 -0.953125 -0.765625 -1.515625q-0.75 -0.5625 -2.484375 -1.25q-0.84375 -0.34375 -1.609375 -0.6875q-0.765625 -0.359375 -1.328125 -0.828125q-0.5625 -0.484375 -0.90625 -1.15625q-0.328125 -0.671875 -0.328125 -1.640625q0 -1.9375 1.421875 -3.0625q1.4375 -1.140625 3.890625 -1.140625q0.625 0 1.234375 0.078125q0.625 0.0625 1.15625 0.15625q0.53125 0.09375 0.9375 0.21875q0.40625 0.109375 0.625 0.1875l-0.46875 2.234375q-0.421875 -0.21875 -1.328125 -0.453125q-0.890625 -0.234375 -2.15625 -0.234375q-1.078125 0 -1.890625 0.4375q-0.8125 0.421875 -0.8125 1.34375q0 0.484375 0.171875 0.84375q0.1875 0.359375 0.5625 0.65625q0.375 0.296875 0.9375 0.546875q0.5625 0.25 1.34375 0.53125q1.046875 0.390625 1.84375 0.78125q0.8125 0.375 1.390625 0.875q0.578125 0.5 0.875 1.21875q0.3125 0.71875 0.3125 1.75q0 2.015625 -1.5 3.0625q-1.484375 1.03125 -4.265625 1.03125q-1.921875 0 -3.015625 -0.328125q-1.09375 -0.328125 -1.484375 -0.484375l0.46875 -2.25q0.453125 0.171875 1.421875 0.515625q0.984375 0.328125 2.609375 0.328125zm21.956802 -5.40625q0 1.734375 -0.515625 3.140625q-0.5 1.390625 -1.40625 2.40625q-0.90625 1.0 -2.171875 1.546875q-1.25 0.546875 -2.734375 0.546875q-1.484375 0 -2.75 -0.546875q-1.265625 -0.546875 -2.171875 -1.546875q-0.90625 -1.015625 -1.421875 -2.40625q-0.5 -1.40625 -0.5 -3.140625q0 -1.703125 0.5 -3.109375q0.515625 -1.421875 1.421875 -2.421875q0.90625 -1.015625 2.171875 -1.5625q1.265625 -0.546875 2.75 -0.546875q1.484375 0 2.734375 0.546875q1.265625 0.546875 2.171875 1.5625q0.90625 1.0 1.40625 2.421875q0.515625 1.40625 0.515625 3.109375zm-2.71875 0q0 -2.46875 -1.109375 -3.90625q-1.109375 -1.4375 -3.0 -1.4375q-1.90625 0 -3.015625 1.4375q-1.109375 1.4375 -1.109375 3.90625q0 2.46875 1.109375 3.90625q1.109375 1.4375 3.015625 1.4375q1.890625 0 3.0 -1.4375q1.109375 -1.4375 1.109375 -3.90625zm10.75444 7.5625q-2.40625 -0.0625 -3.421875 -1.03125q-1.0 -0.984375 -1.0 -3.0625l0 -17.46875l2.59375 -0.453125l0 17.5q0 0.65625 0.109375 1.078125q0.125 0.40625 0.375 0.671875q0.25 0.25 0.671875 0.375q0.421875 0.125 1.03125 0.203125l-0.359375 2.1875zm14.644028 -14.84375q-1.09375 4.09375 -2.5625 7.84375q-1.46875 3.75 -2.84375 6.71875l-2.34375 0q-1.375 -2.96875 -2.84375 -6.71875q-1.46875 -3.75 -2.5625 -7.84375l2.796875 0q0.328125 1.375 0.796875 2.9375q0.46875 1.546875 0.984375 3.078125q0.515625 1.515625 1.046875 2.953125q0.53125 1.421875 1.0 2.546875q0.484375 -1.125 1.015625 -2.546875q0.53125 -1.4375 1.046875 -2.953125q0.515625 -1.53125 0.96875 -3.078125q0.46875 -1.5625 0.8125 -2.9375l2.6875 0zm1.4765625 7.3125q0 -1.9375 0.5625 -3.375q0.5625 -1.4375 1.484375 -2.390625q0.921875 -0.953125 2.125 -1.421875q1.203125 -0.484375 2.46875 -0.484375q2.9375 0 4.5 1.84375q1.578125 1.828125 1.578125 5.578125q0 0.15625 0 0.4375q0 0.265625 -0.03125 0.484375l-9.96875 0q0.171875 2.265625 1.3125 3.453125q1.15625 1.171875 3.59375 1.171875q1.375 0 2.3125 -0.234375q0.9375 -0.25 1.40625 -0.46875l0.359375 2.1875q-0.46875 0.25 -1.65625 0.53125q-1.1875 0.28125 -2.703125 0.28125q-1.90625 0 -3.296875 -0.578125q-1.375 -0.578125 -2.28125 -1.578125q-0.890625 -1.015625 -1.328125 -2.390625q-0.4375 -1.390625 -0.4375 -3.046875zm10.0 -1.4375q0.03125 -1.75 -0.890625 -2.890625q-0.90625 -1.140625 -2.5 -1.140625q-0.890625 0 -1.578125 0.359375q-0.6875 0.34375 -1.171875 0.90625q-0.46875 0.5625 -0.734375 1.296875q-0.265625 0.71875 -0.34375 1.46875l7.21875 0zm17.010727 7.171875q0 0.765625 -0.5 1.328125q-0.5 0.546875 -1.375 0.546875q-0.859375 0 -1.375 -0.546875q-0.5 -0.5625 -0.5 -1.328125q0 -0.75 0.5 -1.3125q0.515625 -0.5625 1.375 -0.5625q0.875 0 1.375 0.5625q0.5 0.5625 0.5 1.3125zm10.0 0q0 0.765625 -0.5 1.328125q-0.5 0.546875 -1.375 0.546875q-0.859375 0 -1.375 -0.546875q-0.5 -0.5625 -0.5 -1.328125q0 -0.75 0.5 -1.3125q0.515625 -0.5625 1.375 -0.5625q0.875 0 1.375 0.5625q0.5 0.5625 0.5 1.3125zm9.0 0q0 0.765625 -0.5 1.328125q-0.5 0.546875 -1.375 0.546875q-0.859375 0 -1.375 -0.546875q-0.5 -0.5625 -0.5 -1.328125q0 -0.75 0.5 -1.3125q0.515625 -0.5625 1.375 -0.5625q0.875 0 1.375 0.5625q0.5 0.5625 0.5 1.3125zm10.46553 -5.734375q0 -1.9375 0.5625 -3.375q0.5625 -1.4375 1.484375 -2.390625q0.921875 -0.953125 2.125 -1.421875q1.203125 -0.484375 2.46875 -0.484375q2.9375 0 4.5 1.84375q1.5781555 1.828125 1.5781555 5.578125q0 0.15625 0 0.4375q0 0.265625 -0.03125 0.484375l-9.9687805 0q0.171875 2.265625 1.3125 3.453125q1.15625 1.171875 3.59375 1.171875q1.375 0 2.3125 -0.234375q0.9375 -0.25 1.40625 -0.46875l0.35940552 2.1875q-0.46878052 0.25 -1.6562805 0.53125q-1.1875 0.28125 -2.703125 0.28125q-1.90625 0 -3.296875 -0.578125q-1.375 -0.578125 -2.28125 -1.578125q-0.890625 -1.015625 -1.328125 -2.390625q-0.4375 -1.390625 -0.4375 -3.046875zm10.0 -1.4375q0.03125 -1.75 -0.890625 -2.890625q-0.90625 -1.140625 -2.5 -1.140625q-0.890625 0 -1.578125 0.359375q-0.6875 0.34375 -1.171875 0.90625q-0.46875 0.5625 -0.734375 1.296875q-0.265625 0.71875 -0.34375 1.46875l7.21875 0zm9.855194 6.8125q1.59375 0 2.359375 -0.421875q0.78125 -0.421875 0.78125 -1.34375q0 -0.953125 -0.765625 -1.515625q-0.75 -0.5625 -2.484375 -1.25q-0.84375 -0.34375 -1.609375 -0.6875q-0.765625 -0.359375 -1.328125 -0.828125q-0.5625 -0.484375 -0.90625 -1.15625q-0.328125 -0.671875 -0.328125 -1.640625q0 -1.9375 1.421875 -3.0625q1.4375 -1.140625 3.890625 -1.140625q0.625 0 1.234375 0.078125q0.625 0.0625 1.15625 0.15625q0.53125 0.09375 0.9375 0.21875q0.40625 0.109375 0.625 0.1875l-0.46875 2.234375q-0.421875 -0.21875 -1.328125 -0.453125q-0.890625 -0.234375 -2.15625 -0.234375q-1.078125 0 -1.890625 0.4375q-0.8125 0.421875 -0.8125 1.34375q0 0.484375 0.171875 0.84375q0.1875 0.359375 0.5625 0.65625q0.375 0.296875 0.9375 0.546875q0.5625 0.25 1.34375 0.53125q1.046875 0.390625 1.84375 0.78125q0.8125 0.375 1.390625 0.875q0.578125 0.5 0.875 1.21875q0.3125 0.71875 0.3125 1.75q0 2.015625 -1.5 3.0625q-1.484375 1.03125 -4.265625 1.03125q-1.921875 0 -3.015625 -0.328125q-1.09375 -0.328125 -1.484375 -0.484375l0.46875 -2.25q0.453125 0.171875 1.421875 0.515625q0.984375 0.328125 2.609375 0.328125zm11.534943 -12.6875l5.515625 0l0 2.1875l-5.515625 0l0 6.71875q0 1.09375 0.171875 1.8125q0.171875 0.703125 0.5 1.109375q0.34375 0.40625 0.84375 0.578125q0.5 0.171875 1.171875 0.171875q1.1875 0 1.890625 -0.265625q0.71875 -0.265625 1.0 -0.375l0.5 2.15625q-0.390625 0.1875 -1.375 0.484375q-0.96875 0.296875 -2.234375 0.296875q-1.484375 0 -2.453125 -0.375q-0.96875 -0.390625 -1.5625 -1.140625q-0.578125 -0.75 -0.8125 -1.859375q-0.234375 -1.109375 -0.234375 -2.5625l0 -13.0l2.59375 -0.4375l0 4.5zm11.4279175 14.5625l-2.609375 0l0 -14.5625l2.609375 0l0 14.5625zm-1.3125 -17.1875q-0.703125 0 -1.203125 -0.453125q-0.484375 -0.46875 -0.484375 -1.265625q0 -0.78125 0.484375 -1.234375q0.5 -0.46875 1.203125 -0.46875q0.703125 0 1.1875 0.46875q0.484375 0.453125 0.484375 1.234375q0 0.796875 -0.484375 1.265625q-0.484375 0.453125 -1.1875 0.453125zm5.7871704 3.046875q0.90625 -0.21875 2.375 -0.46875q1.46875 -0.265625 3.40625 -0.265625q1.390625 0 2.34375 0.390625q0.953125 0.375 1.59375 1.09375q0.203125 -0.140625 0.609375 -0.390625q0.421875 -0.25 1.03125 -0.484375q0.625 -0.234375 1.375 -0.421875q0.765625 -0.1875 1.640625 -0.1875q1.671875 0 2.734375 0.5q1.0625 0.484375 1.65625 1.390625q0.609375 0.890625 0.8125 2.125q0.21875 1.234375 0.21875 2.6875l0 8.171875l-2.59375 0l0 -7.609375q0 -1.296875 -0.125 -2.21875q-0.125 -0.921875 -0.484375 -1.53125q-0.34375 -0.625 -0.953125 -0.921875q-0.59375 -0.296875 -1.546875 -0.296875q-1.3125 0 -2.171875 0.359375q-0.859375 0.34375 -1.171875 0.625q0.234375 0.734375 0.34375 1.609375q0.109375 0.859375 0.109375 1.8125l0 8.171875l-2.59375 0l0 -7.609375q0 -1.296875 -0.140625 -2.21875q-0.140625 -0.921875 -0.5 -1.53125q-0.34375 -0.625 -0.953125 -0.921875q-0.59375 -0.296875 -1.515625 -0.296875q-0.390625 0 -0.84375 0.03125q-0.453125 0.03125 -0.859375 0.078125q-0.40625 0.03125 -0.75 0.09375q-0.328125 0.0625 -0.4375 0.078125l0 12.296875l-2.609375 0l0 -14.140625zm29.045593 12.265625q0.921875 0 1.625 -0.03125q0.71875 -0.046875 1.203125 -0.171875l0 -4.328125q-0.28125 -0.140625 -0.921875 -0.234375q-0.625 -0.109375 -1.515625 -0.109375q-0.59375 0 -1.25 0.09375q-0.65625 0.078125 -1.203125 0.34375q-0.546875 0.265625 -0.90625 0.734375q-0.359375 0.453125 -0.359375 1.203125q0 1.40625 0.890625 1.953125q0.890625 0.546875 2.4375 0.546875zm-0.234375 -13.046875q1.578125 0 2.65625 0.40625q1.078125 0.40625 1.734375 1.15625q0.65625 0.734375 0.9375 1.765625q0.28125 1.015625 0.28125 2.234375l0 9.109375q-0.34375 0.046875 -0.953125 0.15625q-0.59375 0.09375 -1.359375 0.171875q-0.75 0.09375 -1.625 0.15625q-0.875 0.078125 -1.75 0.078125q-1.234375 0 -2.265625 -0.265625q-1.03125 -0.25 -1.796875 -0.78125q-0.75 -0.546875 -1.171875 -1.4375q-0.421875 -0.90625 -0.421875 -2.171875q0 -1.203125 0.484375 -2.0625q0.5 -0.875 1.328125 -1.40625q0.84375 -0.53125 1.96875 -0.78125q1.125 -0.25 2.359375 -0.25q0.390625 0 0.796875 0.046875q0.421875 0.03125 0.796875 0.109375q0.390625 0.0625 0.671875 0.125q0.28125 0.046875 0.390625 0.078125l0 -0.734375q0 -0.640625 -0.140625 -1.265625q-0.140625 -0.625 -0.515625 -1.109375q-0.359375 -0.5 -0.984375 -0.796875q-0.625 -0.296875 -1.640625 -0.296875q-1.28125 0 -2.25 0.1875q-0.96875 0.1875 -1.4375 0.375l-0.3125 -2.15625q0.5 -0.21875 1.671875 -0.421875q1.1875 -0.21875 2.546875 -0.21875zm12.350433 0.359375l5.515625 0l0 2.1875l-5.515625 0l0 6.71875q0 1.09375 0.171875 1.8125q0.171875 0.703125 0.5 1.109375q0.34375 0.40625 0.84375 0.578125q0.5 0.171875 1.171875 0.171875q1.1875 0 1.890625 -0.265625q0.71875 -0.265625 1.0 -0.375l0.5 2.15625q-0.390625 0.1875 -1.375 0.484375q-0.96875 0.296875 -2.234375 0.296875q-1.484375 0 -2.453125 -0.375q-0.96875 -0.390625 -1.5625 -1.140625q-0.578125 -0.75 -0.8125 -1.859375q-0.234375 -1.109375 -0.234375 -2.5625l0 -13.0l2.59375 -0.4375l0 4.5zm7.7260437 7.3125q0 -1.9375 0.5625 -3.375q0.5625 -1.4375 1.484375 -2.390625q0.921875 -0.953125 2.125 -1.421875q1.203125 -0.484375 2.46875 -0.484375q2.9375 0 4.5 1.84375q1.578125 1.828125 1.578125 5.578125q0 0.15625 0 0.4375q0 0.265625 -0.03125 0.484375l-9.96875 0q0.171875 2.265625 1.3125 3.453125q1.15625 1.171875 3.59375 1.171875q1.375 0 2.3125 -0.234375q0.9375 -0.25 1.40625 -0.46875l0.359375 2.1875q-0.46875 0.25 -1.65625 0.53125q-1.1875 0.28125 -2.703125 0.28125q-1.90625 0 -3.296875 -0.578125q-1.375 -0.578125 -2.28125 -1.578125q-0.890625 -1.015625 -1.328125 -2.390625q-0.4375 -1.390625 -0.4375 -3.046875zm10.0 -1.4375q0.03125 -1.75 -0.890625 -2.890625q-0.90625 -1.140625 -2.5 -1.140625q-0.890625 0 -1.578125 0.359375q-0.6875 0.34375 -1.171875 0.90625q-0.46875 0.5625 -0.734375 1.296875q-0.265625 0.71875 -0.34375 1.46875l7.21875 0zm16.010742 7.171875q0 0.765625 -0.5 1.328125q-0.5 0.546875 -1.375 0.546875q-0.859375 0 -1.375 -0.546875q-0.5 -0.5625 -0.5 -1.328125q0 -0.75 0.5 -1.3125q0.515625 -0.5625 1.375 -0.5625q0.875 0 1.375 0.5625q0.5 0.5625 0.5 1.3125zm6.888031 0q0 0.765625 -0.5 1.328125q-0.5 0.546875 -1.375 0.546875q-0.859375 0 -1.375 -0.546875q-0.5 -0.5625 -0.5 -1.328125q0 -0.75 0.5 -1.3125q0.515625 -0.5625 1.375 -0.5625q0.875 0 1.375 0.5625q0.5 0.5625 0.5 1.3125zm6.888031 0q0 0.765625 -0.5 1.328125q-0.5 0.546875 -1.375 0.546875q-0.859375 0 -1.375 -0.546875q-0.5 -0.5625 -0.5 -1.328125q0 -0.75 0.5 -1.3125q0.515625 -0.5625 1.375 -0.5625q0.875 0 1.375 0.5625q0.5 0.5625 0.5 1.3125zm19.684204 -9.96875q-0.46875 -0.390625 -1.375 -0.75q-0.890625 -0.359375 -1.953125 -0.359375q-1.109375 0 -1.921875 0.40625q-0.796875 0.40625 -1.296875 1.125q-0.5 0.703125 -0.734375 1.6875q-0.21875 0.96875 -0.21875 2.09375q0 2.546875 1.25 3.9375q1.265625 1.390625 3.375 1.390625q1.0625 0 1.765625 -0.09375q0.71875 -0.109375 1.109375 -0.21875l0 -9.21875zm0 -9.796875l2.609375 -0.453125l0 21.3125q-0.890625 0.25 -2.296875 0.5q-1.390625 0.265625 -3.21875 0.265625q-1.671875 0 -3.015625 -0.53125q-1.34375 -0.546875 -2.296875 -1.515625q-0.953125 -0.984375 -1.484375 -2.390625q-0.515625 -1.421875 -0.515625 -3.1875q0 -1.671875 0.4375 -3.078125q0.4375 -1.40625 1.265625 -2.40625q0.84375 -1.015625 2.0625 -1.5625q1.21875 -0.5625 2.796875 -0.5625q1.25 0 2.21875 0.34375q0.96875 0.328125 1.4375 0.625l0 -7.359375zm5.3826904 24.0q0.3125 0.140625 0.796875 0.265625q0.484375 0.125 0.96875 0.125q1.546875 0 2.40625 -0.6875q0.875 -0.6875 1.5625 -2.21875q-1.75 -3.359375 -3.28125 -7.125q-1.53125 -3.78125 -2.53125 -7.640625l2.796875 0q0.3125 1.265625 0.734375 2.71875q0.4375 1.453125 0.96875 3.0q0.53125 1.53125 1.140625 3.078125q0.625 1.53125 1.296875 2.96875q1.0625 -2.9375 1.84375 -5.828125q0.796875 -2.890625 1.484375 -5.9375l2.6875 0q-1.0 4.125 -2.234375 7.921875q-1.234375 3.78125 -2.65625 7.09375q-0.5625 1.25 -1.171875 2.15625q-0.59375 0.921875 -1.328125 1.5q-0.71875 0.59375 -1.640625 0.875q-0.90625 0.28125 -2.046875 0.28125q-0.3125 0 -0.65625 -0.046875q-0.328125 -0.03125 -0.65625 -0.109375q-0.3125 -0.0625 -0.578125 -0.15625q-0.265625 -0.078125 -0.375 -0.140625l0.46875 -2.09375zm15.619202 -16.859375q0.90625 -0.21875 2.390625 -0.46875q1.484375 -0.265625 3.40625 -0.265625q1.734375 0 2.875 0.5q1.15625 0.484375 1.84375 1.375q0.6875 0.875 0.96875 2.109375q0.28125 1.234375 0.28125 2.71875l0 8.171875l-2.609375 0l0 -7.609375q0 -1.34375 -0.1875 -2.296875q-0.171875 -0.953125 -0.59375 -1.546875q-0.421875 -0.59375 -1.125 -0.859375q-0.6875 -0.265625 -1.734375 -0.265625q-0.40625 0 -0.859375 0.03125q-0.453125 0.03125 -0.859375 0.078125q-0.40625 0.03125 -0.734375 0.09375q-0.3125 0.0625 -0.453125 0.078125l0 12.296875l-2.609375 0l0 -14.140625zm21.009583 12.265625q0.921875 0 1.625 -0.03125q0.71875 -0.046875 1.203125 -0.171875l0 -4.328125q-0.28125 -0.140625 -0.921875 -0.234375q-0.625 -0.109375 -1.515625 -0.109375q-0.59375 0 -1.25 0.09375q-0.65625 0.078125 -1.203125 0.34375q-0.546875 0.265625 -0.90625 0.734375q-0.359375 0.453125 -0.359375 1.203125q0 1.40625 0.890625 1.953125q0.890625 0.546875 2.4375 0.546875zm-0.234375 -13.046875q1.578125 0 2.65625 0.40625q1.078125 0.40625 1.734375 1.15625q0.65625 0.734375 0.9375 1.765625q0.28125 1.015625 0.28125 2.234375l0 9.109375q-0.34375 0.046875 -0.953125 0.15625q-0.59375 0.09375 -1.359375 0.171875q-0.75 0.09375 -1.625 0.15625q-0.875 0.078125 -1.75 0.078125q-1.234375 0 -2.265625 -0.265625q-1.03125 -0.25 -1.796875 -0.78125q-0.75 -0.546875 -1.171875 -1.4375q-0.421875 -0.90625 -0.421875 -2.171875q0 -1.203125 0.484375 -2.0625q0.5 -0.875 1.328125 -1.40625q0.84375 -0.53125 1.96875 -0.78125q1.125 -0.25 2.359375 -0.25q0.390625 0 0.796875 0.046875q0.421875 0.03125 0.796875 0.109375q0.390625 0.0625 0.671875 0.125q0.28125 0.046875 0.390625 0.078125l0 -0.734375q0 -0.640625 -0.140625 -1.265625q-0.140625 -0.625 -0.515625 -1.109375q-0.359375 -0.5 -0.984375 -0.796875q-0.625 -0.296875 -1.640625 -0.296875q-1.28125 0 -2.25 0.1875q-0.96875 0.1875 -1.4375 0.375l-0.3125 -2.15625q0.5 -0.21875 1.671875 -0.421875q1.1875 -0.21875 2.546875 -0.21875zm9.912933 0.78125q0.90625 -0.21875 2.375 -0.46875q1.46875 -0.265625 3.40625 -0.265625q1.390625 0 2.34375 0.390625q0.953125 0.375 1.59375 1.09375q0.203125 -0.140625 0.609375 -0.390625q0.421875 -0.25 1.03125 -0.484375q0.625 -0.234375 1.375 -0.421875q0.765625 -0.1875 1.640625 -0.1875q1.671875 0 2.734375 0.5q1.0625 0.484375 1.65625 1.390625q0.609375 0.890625 0.8125 2.125q0.21875 1.234375 0.21875 2.6875l0 8.171875l-2.59375 0l0 -7.609375q0 -1.296875 -0.125 -2.21875q-0.125 -0.921875 -0.484375 -1.53125q-0.34375 -0.625 -0.953125 -0.921875q-0.59375 -0.296875 -1.546875 -0.296875q-1.3125 0 -2.171875 0.359375q-0.859375 0.34375 -1.171875 0.625q0.234375 0.734375 0.34375 1.609375q0.109375 0.859375 0.109375 1.8125l0 8.171875l-2.59375 0l0 -7.609375q0 -1.296875 -0.140625 -2.21875q-0.140625 -0.921875 -0.5 -1.53125q-0.34375 -0.625 -0.953125 -0.921875q-0.59375 -0.296875 -1.515625 -0.296875q-0.390625 0 -0.84375 0.03125q-0.453125 0.03125 -0.859375 0.078125q-0.40625 0.03125 -0.75 0.09375q-0.328125 0.0625 -0.4375 0.078125l0 12.296875l-2.609375 0l0 -14.140625zm26.717468 14.140625l-2.609375 0l0 -14.5625l2.609375 0l0 14.5625zm-1.3125 -17.1875q-0.703125 0 -1.203125 -0.453125q-0.484375 -0.46875 -0.484375 -1.265625q0 -0.78125 0.484375 -1.234375q0.5 -0.46875 1.203125 -0.46875q0.703125 0 1.1875 0.46875q0.484375 0.453125 0.484375 1.234375q0 0.796875 -0.484375 1.265625q-0.484375 0.453125 -1.1875 0.453125zm12.115265 17.53125q-1.765625 0 -3.09375 -0.5625q-1.328125 -0.5625 -2.234375 -1.5625q-0.90625 -1.015625 -1.359375 -2.40625q-0.453125 -1.390625 -0.453125 -3.0625q0 -1.6875 0.484375 -3.078125q0.5 -1.40625 1.390625 -2.421875q0.90625 -1.03125 2.203125 -1.59375q1.296875 -0.578125 2.90625 -0.578125q0.96875 0 1.953125 0.171875q0.984375 0.15625 1.875 0.53125l-0.59375 2.203125q-0.578125 -0.28125 -1.359375 -0.4375q-0.765625 -0.171875 -1.625 -0.171875q-2.1875 0 -3.359375 1.375q-1.15625 1.359375 -1.15625 4.0q0 1.171875 0.265625 2.15625q0.265625 0.984375 0.84375 1.6875q0.578125 0.6875 1.46875 1.078125q0.890625 0.375 2.1875 0.375q1.03125 0 1.875 -0.203125q0.84375 -0.203125 1.3125 -0.421875l0.359375 2.1875q-0.21875 0.140625 -0.640625 0.265625q-0.421875 0.125 -0.953125 0.21875q-0.53125 0.109375 -1.140625 0.171875q-0.59375 0.078125 -1.15625 0.078125zm23.269287 -7.59375q0 -2.546875 -1.265564 -3.921875q-1.25 -1.375 -3.34375 -1.375q-1.1875 0 -1.84375 0.09375q-0.65625 0.078125 -1.046875 0.1875l0 9.1875q0.46875 0.390625 1.359375 0.765625q0.90625 0.359375 1.96875 0.359375q1.125 0 1.921875 -0.40625q0.796875 -0.40625 1.296875 -1.125q0.51556396 -0.71875 0.73431396 -1.671875q0.21875 -0.96875 0.21875 -2.09375zm2.71875 0q0 1.65625 -0.4375 3.0625q-0.421875 1.390625 -1.265625 2.40625q-0.84375 1.0 -2.062439 1.5625q-1.21875 0.5625 -2.78125 0.5625q-1.265625 0 -2.234375 -0.34375q-0.96875 -0.34375 -1.4375 -0.640625l0 5.828125l-2.609375 0l0 -19.296875q0.921875 -0.234375 2.3125 -0.5q1.390625 -0.265625 3.203125 -0.265625q1.6875 0 3.03125 0.546875q1.343689 0.53125 2.296814 1.515625q0.953125 0.96875 1.46875 2.390625q0.515625 1.40625 0.515625 3.171875zm9.03894 -7.625q0.34375 0 0.765625 0.046875q0.4375 0.046875 0.859375 0.125q0.421875 0.0625 0.765625 0.140625q0.359375 0.0625 0.53125 0.109375l-0.453125 2.265625q-0.3125 -0.109375 -1.03125 -0.25q-0.703125 -0.15625 -1.828125 -0.15625q-0.71875 0 -1.4375 0.15625q-0.71875 0.140625 -0.9375 0.203125l0 12.234375l-2.609375 0l0 -13.9375q0.921875 -0.34375 2.296875 -0.640625q1.375 -0.296875 3.078125 -0.296875zm18.29248 7.59375q0 1.734375 -0.515625 3.140625q-0.5 1.390625 -1.40625 2.40625q-0.90625 1.0 -2.171875 1.546875q-1.25 0.546875 -2.734375 0.546875q-1.484375 0 -2.75 -0.546875q-1.265625 -0.546875 -2.171875 -1.546875q-0.90625 -1.015625 -1.421875 -2.40625q-0.5 -1.40625 -0.5 -3.140625q0 -1.703125 0.5 -3.109375q0.515625 -1.421875 1.421875 -2.421875q0.90625 -1.015625 2.171875 -1.5625q1.265625 -0.546875 2.75 -0.546875q1.484375 0 2.734375 0.546875q1.265625 0.546875 2.171875 1.5625q0.90625 1.0 1.40625 2.421875q0.515625 1.40625 0.515625 3.109375zm-2.71875 0q0 -2.46875 -1.109375 -3.90625q-1.109375 -1.4375 -3.0 -1.4375q-1.90625 0 -3.015625 1.4375q-1.109375 1.4375 -1.109375 3.90625q0 2.46875 1.109375 3.90625q1.109375 1.4375 3.015625 1.4375q1.890625 0 3.0 -1.4375q1.109375 -1.4375 1.109375 -3.90625zm15.52002 5.828125q-0.34375 0.21875 -1.3125 0.578125q-0.96875 0.34375 -2.25 0.34375q-1.3125 0 -2.484375 -0.421875q-1.15625 -0.421875 -2.03125 -1.296875q-0.859375 -0.890625 -1.375 -2.203125q-0.5 -1.3125 -0.5 -3.140625q0 -1.59375 0.46875 -2.921875q0.484375 -1.328125 1.390625 -2.296875q0.921875 -0.96875 2.234375 -1.515625q1.3125 -0.546875 2.96875 -0.546875q1.8125 0 3.171875 0.265625q1.359375 0.265625 2.28125 0.5l0 12.984375q0 3.359375 -1.734375 4.875q-1.734375 1.515625 -5.265625 1.515625q-1.359375 0 -2.578125 -0.234375q-1.21875 -0.21875 -2.125 -0.515625l0.484375 -2.28125q0.78125 0.3125 1.90625 0.546875q1.140625 0.25 2.375 0.25q2.328125 0 3.34375 -0.9375q1.03125 -0.921875 1.03125 -2.9375l0 -0.609375zm-0.03125 -10.8125q-0.390625 -0.109375 -1.0625 -0.203125q-0.65625 -0.109375 -1.765625 -0.109375q-2.109375 0 -3.25 1.375q-1.125 1.375 -1.125 3.640625q0 1.265625 0.3125 2.15625q0.328125 0.890625 0.875 1.484375q0.546875 0.59375 1.265625 0.875q0.71875 0.28125 1.46875 0.28125q1.03125 0 1.90625 -0.296875q0.875 -0.296875 1.375 -0.6875l0 -8.515625zm12.449707 -2.609375q0.34375 0 0.765625 0.046875q0.4375 0.046875 0.859375 0.125q0.421875 0.0625 0.765625 0.140625q0.359375 0.0625 0.53125 0.109375l-0.453125 2.265625q-0.3125 -0.109375 -1.03125 -0.25q-0.703125 -0.15625 -1.828125 -0.15625q-0.71875 0 -1.4375 0.15625q-0.71875 0.140625 -0.9375 0.203125l0 12.234375l-2.609375 0l0 -13.9375q0.921875 -0.34375 2.296875 -0.640625q1.375 -0.296875 3.078125 -0.296875zm10.370605 13.0q0.921875 0 1.625 -0.03125q0.71875 -0.046875 1.203125 -0.171875l0 -4.328125q-0.28125 -0.140625 -0.921875 -0.234375q-0.625 -0.109375 -1.515625 -0.109375q-0.59375 0 -1.25 0.09375q-0.65625 0.078125 -1.203125 0.34375q-0.546875 0.265625 -0.90625 0.734375q-0.359375 0.453125 -0.359375 1.203125q0 1.40625 0.890625 1.953125q0.890625 0.546875 2.4375 0.546875zm-0.234375 -13.046875q1.578125 0 2.65625 0.40625q1.078125 0.40625 1.734375 1.15625q0.65625 0.734375 0.9375 1.765625q0.28125 1.015625 0.28125 2.234375l0 9.109375q-0.34375 0.046875 -0.953125 0.15625q-0.59375 0.09375 -1.359375 0.171875q-0.75 0.09375 -1.625 0.15625q-0.875 0.078125 -1.75 0.078125q-1.234375 0 -2.265625 -0.265625q-1.03125 -0.25 -1.796875 -0.78125q-0.75 -0.546875 -1.171875 -1.4375q-0.421875 -0.90625 -0.421875 -2.171875q0 -1.203125 0.484375 -2.0625q0.5 -0.875 1.328125 -1.40625q0.84375 -0.53125 1.96875 -0.78125q1.125 -0.25 2.359375 -0.25q0.390625 0 0.796875 0.046875q0.421875 0.03125 0.796875 0.109375q0.390625 0.0625 0.671875 0.125q0.28125 0.046875 0.390625 0.078125l0 -0.734375q0 -0.640625 -0.140625 -1.265625q-0.140625 -0.625 -0.515625 -1.109375q-0.359375 -0.5 -0.984375 -0.796875q-0.625 -0.296875 -1.640625 -0.296875q-1.28125 0 -2.25 0.1875q-0.96875 0.1875 -1.4375 0.375l-0.3125 -2.15625q0.5 -0.21875 1.671875 -0.421875q1.1875 -0.21875 2.546875 -0.21875zm9.912964 0.78125q0.90625 -0.21875 2.375 -0.46875q1.46875 -0.265625 3.40625 -0.265625q1.390625 0 2.34375 0.390625q0.953125 0.375 1.59375 1.09375q0.203125 -0.140625 0.609375 -0.390625q0.421875 -0.25 1.03125 -0.484375q0.625 -0.234375 1.375 -0.421875q0.765625 -0.1875 1.640625 -0.1875q1.671875 0 2.734375 0.5q1.0625 0.484375 1.65625 1.390625q0.609375 0.890625 0.8125 2.125q0.21875 1.234375 0.21875 2.6875l0 8.171875l-2.59375 0l0 -7.609375q0 -1.296875 -0.125 -2.21875q-0.125 -0.921875 -0.484375 -1.53125q-0.34375 -0.625 -0.953125 -0.921875q-0.59375 -0.296875 -1.546875 -0.296875q-1.3125 0 -2.171875 0.359375q-0.859375 0.34375 -1.171875 0.625q0.234375 0.734375 0.34375 1.609375q0.109375 0.859375 0.109375 1.8125l0 8.171875l-2.59375 0l0 -7.609375q0 -1.296875 -0.140625 -2.21875q-0.140625 -0.921875 -0.5 -1.53125q-0.34375 -0.625 -0.953125 -0.921875q-0.59375 -0.296875 -1.515625 -0.296875q-0.390625 0 -0.84375 0.03125q-0.453125 0.03125 -0.859375 0.078125q-0.40625 0.03125 -0.75 0.09375q-0.328125 0.0625 -0.4375 0.078125l0 12.296875l-2.609375 0l0 -14.140625zm27.498657 12.265625q1.59375 0 2.359375 -0.421875q0.78125 -0.421875 0.78125 -1.34375q0 -0.953125 -0.765625 -1.515625q-0.75 -0.5625 -2.484375 -1.25q-0.84375 -0.34375 -1.609375 -0.6875q-0.765625 -0.359375 -1.328125 -0.828125q-0.5625 -0.484375 -0.90625 -1.15625q-0.328125 -0.671875 -0.328125 -1.640625q0 -1.9375 1.421875 -3.0625q1.4375 -1.140625 3.890625 -1.140625q0.625 0 1.234375 0.078125q0.625 0.0625 1.15625 0.15625q0.53125 0.09375 0.9375 0.21875q0.40625 0.109375 0.625 0.1875l-0.46875 2.234375q-0.421875 -0.21875 -1.328125 -0.453125q-0.890625 -0.234375 -2.15625 -0.234375q-1.078125 0 -1.890625 0.4375q-0.8125 0.421875 -0.8125 1.34375q0 0.484375 0.171875 0.84375q0.1875 0.359375 0.5625 0.65625q0.375 0.296875 0.9375 0.546875q0.5625 0.25 1.34375 0.53125q1.046875 0.390625 1.84375 0.78125q0.8125 0.375 1.390625 0.875q0.578125 0.5 0.875 1.21875q0.3125 0.71875 0.3125 1.75q0 2.015625 -1.5 3.0625q-1.484375 1.03125 -4.265625 1.03125q-1.921875 0 -3.015625 -0.328125q-1.09375 -0.328125 -1.484375 -0.484375l0.46875 -2.25q0.453125 0.171875 1.421875 0.515625q0.984375 0.328125 2.609375 0.328125z" fill-rule="nonzero"/><path fill="#980000" d="m285.01172 93.40729c-0.49694824 0 -0.9484253 0.09119415 -1.3544922 0.27359772c-0.40463257 0.18239594 -0.74679565 0.43645477 -1.0264893 0.7621689c-0.27972412 0.32426453 -0.49621582 0.7086029 -0.64956665 1.1530228c-0.1519165 0.44441986 -0.22787476 0.9337082 -0.22787476 1.4678802c0 0.5327225 0.06958008 1.019844 0.20870972 1.4613647c0.14056396 0.44007874 0.35211182 0.820076 0.63464355 1.1399994c0.28396606 0.3199234 0.63323975 0.5689087 1.047821 0.7469635c0.41455078 0.17806244 0.8965759 0.26708984 1.4460449 0.26708984c0.17462158 0 0.35565186 -0.011581421 0.5430603 -0.034744263c0.18740845 -0.021713257 0.36416626 -0.04849243 0.53030396 -0.080345154c0.16610718 -0.030395508 0.31448364 -0.06513977 0.44509888 -0.10422516c0.13061523 -0.040534973 0.23071289 -0.083236694 0.30029297 -0.1281128l-0.17037964 -1.0401154c-0.14767456 0.07093811 -0.35281372 0.13752747 -0.6154785 0.1997757c-0.261261 0.06224823 -0.55300903 0.09336853 -0.8753052 0.09336853c-0.40179443 0 -0.7425537 -0.060073853 -1.0222473 -0.18022919c-0.2782898 -0.120147705 -0.50686646 -0.29096985 -0.6857605 -0.5124512c-0.17889404 -0.22293091 -0.31021118 -0.49002075 -0.39398193 -0.8012543c-0.08236694 -0.31124115 -0.123535156 -0.6536026 -0.123535156 -1.0270844c0 -0.8367233 0.18103027 -1.4729462 0.5430603 -1.9086761c0.36206055 -0.4357376 0.8831177 -0.6536026 1.5632019 -0.6536026c0.2711792 0 0.5267334 0.026786804 0.7666931 0.080345154c0.2399292 0.05355835 0.45147705 0.12449646 0.63464355 0.21279907l0.27471924 -1.0531387c-0.2796936 -0.11580658 -0.5721741 -0.20049286 -0.8774109 -0.25405884c-0.30526733 -0.05355835 -0.61053467 -0.080337524 -0.9157715 -0.080337524z" fill-rule="evenodd"/><path fill="#980000" d="m289.40942 90.16535l-1.2181702 0.21497345l0 8.323051c0 0.6586685 0.15689087 1.1436157 0.4706421 1.4548569c0.31518555 0.31123352 0.84762573 0.47554016 1.5972595 0.4929123l0.17037964 -1.0401154c-0.19168091 -0.026054382 -0.35351562 -0.05934906 -0.4855652 -0.09988403c-0.13061523 -0.040527344 -0.23498535 -0.100608826 -0.31304932 -0.18022919c-0.07809448 -0.07961273 -0.1348877 -0.18601227 -0.17037964 -0.3191986c-0.034088135 -0.13317871 -0.051116943 -0.30255127 -0.051116943 -0.50811005l0 -8.338257z" fill-rule="evenodd"/><path fill="#980000" d="m292.39163 90.699524c-0.21722412 0 -0.40249634 0.07382965 -0.55584717 0.22148132c-0.1519165 0.14620972 -0.22787476 0.34381104 -0.22787476 0.59280396c0 0.24898529 0.07595825 0.4473114 0.22787476 0.5949631c0.15335083 0.14620972 0.33862305 0.21931458 0.55584717 0.21931458c0.21865845 0 0.40393066 -0.07310486 0.55584717 -0.21931458c0.15335083 -0.14765167 0.23001099 -0.34597778 0.23001099 -0.5949631c0 -0.24899292 -0.076660156 -0.44659424 -0.23001099 -0.59280396c-0.1519165 -0.14765167 -0.33718872 -0.22148132 -0.55584717 -0.22148132zm-0.6005554 2.8814774l0 6.937683l1.2160339 0l0 -6.937683z" fill-rule="evenodd"/><path fill="#980000" d="m297.97873 93.40729c-0.49691772 0 -0.9484253 0.09119415 -1.3544922 0.27359772c-0.40463257 0.18239594 -0.74679565 0.43645477 -1.0264893 0.7621689c-0.27972412 0.32426453 -0.49621582 0.7086029 -0.64956665 1.1530228c-0.1519165 0.44441986 -0.22787476 0.9337082 -0.22787476 1.4678802c0 0.5327225 0.06958008 1.019844 0.20870972 1.4613647c0.14056396 0.44007874 0.35211182 0.820076 0.63464355 1.1399994c0.28396606 0.3199234 0.63323975 0.5689087 1.047821 0.7469635c0.41455078 0.17806244 0.8965759 0.26708984 1.4460449 0.26708984c0.17462158 0 0.35565186 -0.011581421 0.5430603 -0.034744263c0.18740845 -0.021713257 0.36416626 -0.04849243 0.53030396 -0.080345154c0.16610718 -0.030395508 0.31448364 -0.06513977 0.44509888 -0.10422516c0.13061523 -0.040534973 0.23071289 -0.083236694 0.30029297 -0.1281128l-0.17037964 -1.0401154c-0.14767456 0.07093811 -0.35281372 0.13752747 -0.6154785 0.1997757c-0.261261 0.06224823 -0.55300903 0.09336853 -0.8753052 0.09336853c-0.40179443 0 -0.7425537 -0.060073853 -1.0222473 -0.18022919c-0.2782898 -0.120147705 -0.50686646 -0.29096985 -0.6857605 -0.5124512c-0.17889404 -0.22293091 -0.31021118 -0.49002075 -0.39398193 -0.8012543c-0.08236694 -0.31124115 -0.123535156 -0.6536026 -0.123535156 -1.0270844c0 -0.8367233 0.18103027 -1.4729462 0.5430603 -1.9086761c0.36206055 -0.4357376 0.8831177 -0.6536026 1.5632019 -0.6536026c0.2711792 0 0.5267334 0.026786804 0.7666931 0.080345154c0.2399292 0.05355835 0.45147705 0.12449646 0.63464355 0.21279907l0.27471924 -1.0531387c-0.2796936 -0.11580658 -0.5721741 -0.20049286 -0.8774109 -0.25405884c-0.30526733 -0.05355835 -0.61053467 -0.080337524 -0.9157715 -0.080337524z" fill-rule="evenodd"/><path fill="#980000" d="m302.40198 90.16535l-1.2160339 0.21497345l0 10.138359l1.2160339 0l0 -3.3352966c0.24420166 0.16936493 0.5011902 0.37854767 0.7709656 0.6275406c0.2711792 0.24898529 0.53738403 0.522583 0.7986145 0.82079315c0.2626648 0.29676056 0.51327515 0.6080017 0.75180054 0.9337158c0.2399292 0.32426453 0.45147705 0.64201355 0.63464355 0.9532471l1.4268799 0c-0.1746521 -0.31123352 -0.38830566 -0.64707947 -0.64105225 -1.0075378c-0.25271606 -0.36045074 -0.5210571 -0.7158432 -0.8049927 -1.0661621c-0.28256226 -0.35177612 -0.57006836 -0.6789322 -0.8625488 -0.98148346c-0.29244995 -0.30255127 -0.56933594 -0.5558853 -0.8305664 -0.76000214c0.22573853 -0.24030304 0.46710205 -0.49580383 0.7240906 -0.76651c0.25839233 -0.27214813 0.51397705 -0.5435791 0.7666931 -0.81427765c0.25271606 -0.27215576 0.49691772 -0.54141235 0.732605 -0.8077698c0.23568726 -0.26636505 0.45361328 -0.5110092 0.6538086 -0.7339401l-1.4247437 0c-0.15759277 0.18673706 -0.34573364 0.4024353 -0.5643616 0.64707947c-0.21722412 0.2446518 -0.44796753 0.5008774 -0.6921692 0.7686844c-0.24420166 0.26635742 -0.4933777 0.52838135 -0.74749756 0.7860565c-0.25274658 0.25767517 -0.48345947 0.49363708 -0.6921692 0.7078781l0 -6.325348z" fill-rule="evenodd"/><path fill="#980000" d="m312.17603 91.433464l-1.2160645 0.21279907l0 6.1907196c0 0.46323395 0.03692627 0.8707428 0.11074829 1.2225113c0.07385254 0.3503189 0.20233154 0.6456375 0.38546753 0.88594055c0.1831665 0.24030304 0.42523193 0.42053223 0.7262268 0.54067993c0.30099487 0.120155334 0.68292236 0.18022919 1.1457825 0.18022919c0.3918457 0 0.7404175 -0.047050476 1.0456848 -0.1411438c0.30523682 -0.09264374 0.5189209 -0.17008972 0.6410217 -0.23233795l-0.23425293 -1.0292587c-0.08804321 0.036193848 -0.24349976 0.09699249 -0.46640015 0.18240356c-0.22149658 0.08396149 -0.51538086 0.12593842 -0.88171387 0.12593842c-0.21011353 0 -0.39398193 -0.026779175 -0.5515747 -0.080337524c-0.15618896 -0.05356598 -0.2868042 -0.14476013 -0.39187622 -0.27359772c-0.103637695 -0.12883759 -0.18173218 -0.30617523 -0.23425293 -0.5319977c-0.052520752 -0.22727966 -0.07879639 -0.5146332 -0.07879639 -0.86206055l0 -3.2028427l2.5769043 0l0 -1.0401077l-2.5769043 0l0 -2.1475372z" fill-rule="evenodd"/><path fill="#980000" d="m318.92685 94.50168c0.59347534 0 1.0627136 0.22944641 1.4077148 0.68833923c0.34500122 0.45745087 0.5175171 1.0777512 0.5175171 1.8609085c0 0.7817154 -0.17251587 1.4020157 -0.5175171 1.8609085c-0.34500122 0.45745087 -0.8142395 0.6861725 -1.4077148 0.6861725c-0.592041 0 -1.0605774 -0.22872162 -1.4055786 -0.6861725c-0.34503174 -0.45889282 -0.5175171 -1.0791931 -0.5175171 -1.8609085c0 -0.78315735 0.17248535 -1.4034576 0.5175171 -1.8609085c0.34500122 -0.45889282 0.8135376 -0.68833923 1.4055786 -0.68833923zm0 -1.0943909c-0.46142578 0 -0.88879395 0.08685303 -1.282074 0.2605667c-0.3918457 0.17371368 -0.72976685 0.42053223 -1.0137329 0.7404556c-0.28253174 0.3199234 -0.502594 0.7049866 -0.66018677 1.1551971c-0.15759277 0.448761 -0.23638916 0.9445648 -0.23638916 1.4874191c0 0.5500946 0.07879639 1.0480728 0.23638916 1.4939423c0.15759277 0.44441223 0.37765503 0.82658386 0.66018677 1.1465073c0.28396606 0.3199234 0.6218872 0.56674194 1.0137329 0.7404556c0.39328003 0.17371368 0.8206482 0.2605667 1.282074 0.2605667c0.4628601 0 0.89019775 -0.08685303 1.282074 -0.2605667c0.39328003 -0.17371368 0.73117065 -0.42053223 1.0137329 -0.7404556c0.28393555 -0.3199234 0.5047302 -0.70209503 0.662323 -1.1465073c0.15759277 -0.44586945 0.23638916 -0.94384766 0.23638916 -1.4939423c0 -0.5428543 -0.07879639 -1.0386581 -0.23638916 -1.4874191c-0.15759277 -0.45021057 -0.37838745 -0.83527374 -0.662323 -1.1551971c-0.28256226 -0.3199234 -0.6204529 -0.56674194 -1.0137329 -0.7404556c-0.39187622 -0.17371368 -0.81921387 -0.2605667 -1.282074 -0.2605667z" fill-rule="evenodd"/><path fill="#980000" d="m329.6311 94.51471c0.34927368 0 0.6481323 0.06442261 0.89660645 0.1932602c0.24847412 0.12883759 0.45077515 0.3068924 0.6069641 0.5341644c0.15759277 0.22727966 0.2711792 0.49653625 0.34075928 0.8077698c0.07098389 0.31123352 0.10647583 0.6449127 0.10647583 1.0010223c0 0.80921936 -0.19665527 1.4338608 -0.5899353 1.8739395c-0.3918457 0.4400711 -0.91503906 0.6601105 -1.5695801 0.6601105c-0.33221436 0 -0.60980225 -0.015197754 -0.83270264 -0.04560089c-0.22146606 -0.031845093 -0.39328003 -0.06586456 -0.51538086 -0.10205841l0 -4.3884354c0.14767456 -0.12449646 0.36132812 -0.2446518 0.64105225 -0.36045837c0.2796936 -0.11580658 0.5849304 -0.17371368 0.91574097 -0.17371368zm-1.5567932 -4.3493576l-1.2160339 0.21497345l0 9.938591c0.27825928 0.07962036 0.63534546 0.15924072 1.071228 0.23885345c0.43728638 0.08106995 0.93917847 0.12160492 1.5056763 0.12160492c0.52389526 0 0.9945679 -0.08468628 1.4119873 -0.25405884c0.41882324 -0.16937256 0.7766113 -0.4096756 1.0733643 -0.7209091c0.2967224 -0.31124115 0.5252991 -0.6912384 0.6857605 -1.1399994c0.16183472 -0.448761 0.24276733 -0.9532547 0.24276733 -1.5134811c0 -0.5341644 -0.06744385 -1.0234604 -0.20230103 -1.4678802c-0.1348877 -0.44441223 -0.3336792 -0.82658386 -0.5963135 -1.1465073c-0.261261 -0.321373 -0.5814209 -0.57108307 -0.96051025 -0.7491379c-0.37905884 -0.17806244 -0.8128052 -0.26708984 -1.301239 -0.26708984c-0.39328003 0 -0.7404175 0.05356598 -1.0414124 0.16069031c-0.30099487 0.10712433 -0.5252991 0.20917511 -0.67297363 0.3061676l0 -3.721817z" fill-rule="evenodd"/><path fill="#980000" d="m337.27203 94.46259c0.49832153 0 0.8887634 0.18022919 1.1713257 0.54068756c0.28393555 0.3590088 0.42166138 0.8186264 0.41314697 1.3788528l-3.3755493 0c0.025543213 -0.24030304 0.07949829 -0.47554016 0.16186523 -0.70571136c0.08377075 -0.23162079 0.19946289 -0.43645477 0.34713745 -0.6145172c0.14907837 -0.17805481 0.33010864 -0.32209015 0.5430603 -0.43211365c0.21438599 -0.111465454 0.46072388 -0.16719818 0.7390137 -0.16719818zm0.012756348 -1.0553055c-0.3918457 0 -0.7752075 0.0759964 -1.1500244 0.22799683c-0.3748169 0.15055084 -0.70632935 0.3771057 -0.9945679 0.679657c-0.288208 0.30255127 -0.5196228 0.6832733 -0.6942749 1.1421661c-0.17462158 0.45744324 -0.26193237 0.9930649 -0.26193237 1.6068497c0 0.5240402 0.06744385 1.0060883 0.20230103 1.446167c0.13632202 0.4400711 0.3435974 0.82079315 0.6218872 1.1421661c0.2796936 0.3199234 0.63534546 0.57108307 1.0669556 0.75348663c0.4316101 0.18239594 0.94415283 0.27359772 1.5376282 0.27359772c0.4713745 0 0.892334 -0.0448761 1.2629089 -0.1346283c0.37057495 -0.08830261 0.6304016 -0.1722641 0.77948 -0.25188446l-0.17037964 -1.0422821c-0.14907837 0.07093048 -0.36987305 0.14476013 -0.6623535 0.22148132c-0.29104614 0.075279236 -0.65023804 0.11291504 -1.0776062 0.11291504c-0.7595825 0 -1.3182678 -0.18674469 -1.6760559 -0.56022644c-0.3577881 -0.37348175 -0.56295776 -0.9206848 -0.6154785 -1.6415939l4.659729 0c0.008544922 -0.07093048 0.012786865 -0.14837646 0.012786865 -0.23233795c0 -0.08541107 0 -0.1548996 0 -0.20845795c0 -1.191391 -0.24420166 -2.0780487 -0.732605 -2.659996c-0.48840332 -0.58338165 -1.1911926 -0.8750763 -2.1083984 -0.8750763z" fill-rule="evenodd"/><path fill="#980000" d="m344.81003 94.52774c0.34927368 0 0.62612915 0.015922546 0.8305664 0.04776764c0.20446777 0.030403137 0.36773682 0.063697815 0.48983765 0.09988403l0 4.0562134c-0.15618896 0.12449646 -0.36984253 0.23379517 -0.6410217 0.3278885c-0.2697754 0.09264374 -0.5664978 0.13896942 -0.8902283 0.13896942c-0.23425293 0 -0.4628296 -0.044151306 -0.6857605 -0.13245392c-0.22290039 -0.0897522 -0.41952515 -0.22800446 -0.5899048 -0.41474152c-0.16897583 -0.18674469 -0.303833 -0.4219818 -0.4046631 -0.70571136c-0.10079956 -0.28517914 -0.15118408 -0.6282654 -0.15118408 -1.0292587c0 -0.7209091 0.17675781 -1.2992325 0.53027344 -1.7349625c0.35354614 -0.43572998 0.85757446 -0.653595 1.512085 -0.653595zm-0.012786865 -1.0922241c-0.51538086 0 -0.97824097 0.08685303 -1.3885498 0.2605667c-0.40890503 0.1722641 -0.75531006 0.41184998 -1.0392761 0.7187424c-0.28396606 0.3068924 -0.5004883 0.6716919 -0.64956665 1.0943985c-0.14764404 0.42269897 -0.22146606 0.8873825 -0.22146606 1.3940506c0 0.5775986 0.07879639 1.0755768 0.23638916 1.4939346c0.15759277 0.41835785 0.37127686 0.7679596 0.6410217 1.0487976c0.2697754 0.27938843 0.58566284 0.485672 0.9477234 0.6188507c0.36203003 0.13318634 0.74823 0.1997757 1.1585388 0.1997757c0.40179443 0 0.75320435 -0.055007935 1.0541992 -0.16503143c0.30099487 -0.111465454 0.5032959 -0.20266724 0.6069641 -0.27359772l0 0.29314423c0 0.6398392 -0.1590271 1.1066971 -0.47705078 1.4005661c-0.3180542 0.2938614 -0.8391113 0.4407959 -1.5632019 0.4407959c-0.3833313 0 -0.75177 -0.038360596 -1.1052856 -0.11508179c-0.35354614 -0.075279236 -0.6524048 -0.1614151 -0.89660645 -0.25839996l-0.22149658 1.0791931c0.2782898 0.09844208 0.6069641 0.18312073 0.98605347 0.25405884c0.38049316 0.07093048 0.7844238 0.106399536 1.211792 0.106399536c1.0989075 0 1.9188232 -0.24030304 2.4597778 -0.72091675c0.5409241 -0.4791565 0.81140137 -1.2529068 0.81140137 -2.3212433l0 -6.1907196c-0.288208 -0.07093811 -0.64385986 -0.1483841 -1.0669556 -0.23234558c-0.4230957 -0.08396149 -0.9179077 -0.12593842 -1.4844055 -0.12593842z" fill-rule="evenodd"/><path fill="#980000" d="m350.04315 90.699524c-0.21722412 0 -0.40249634 0.07382965 -0.55584717 0.22148132c-0.1519165 0.14620972 -0.22787476 0.34381104 -0.22787476 0.59280396c0 0.24898529 0.07595825 0.4473114 0.22787476 0.5949631c0.15335083 0.14620972 0.33862305 0.21931458 0.55584717 0.21931458c0.21865845 0 0.40393066 -0.07310486 0.55584717 -0.21931458c0.15335083 -0.14765167 0.23001099 -0.34597778 0.23001099 -0.5949631c0 -0.24899292 -0.076660156 -0.44659424 -0.23001099 -0.59280396c-0.1519165 -0.14765167 -0.33718872 -0.22148132 -0.55584717 -0.22148132zm-0.60058594 2.8814774l0 6.937683l1.2160645 0l0 -6.937683z" fill-rule="evenodd"/><path fill="#980000" d="m355.45987 93.43552c-0.60198975 0 -1.1344299 0.03981018 -1.59729 0.11942291c-0.46142578 0.07962036 -0.8312683 0.1548996 -1.1095581 0.22583008l0 6.737915l1.2160645 0l0 -5.8563156c0.044006348 -0.00868988 0.11569214 -0.021713257 0.21508789 -0.03908539c0.10079956 -0.018821716 0.21438599 -0.034744263 0.34075928 -0.04777527c0.12634277 -0.013031006 0.25909424 -0.023887634 0.3982544 -0.032569885c0.14053345 -0.010131836 0.27612305 -0.015197754 0.4067688 -0.015197754c0.32229614 0 0.592041 0.04270172 0.80926514 0.1281128c0.21865845 0.08396149 0.39328003 0.21931458 0.52389526 0.40605164c0.13204956 0.18674469 0.22647095 0.43138885 0.28326416 0.7339401c0.056793213 0.30255127 0.08517456 0.66735077 0.08517456 1.0943985l0 3.6284409l1.2160645 0l0 -3.895523c0 -0.47192383 -0.044006348 -0.9033127 -0.13204956 -1.2941666c-0.08660889 -0.3908615 -0.23709106 -0.72598267 -0.45147705 -1.0053711c-0.21298218 -0.280838 -0.49835205 -0.498703 -0.85614014 -0.653595c-0.3577881 -0.15634155 -0.8071594 -0.23451233 -1.3480835 -0.23451233z" fill-rule="evenodd"/></g></svg>