<svg version="1.1" viewBox="0.0 0.0 640.0 320.0" fill="none" stroke="none" stroke-linecap="square" stroke-miterlimit="10" xmlns:xlink="http://www.w3.org/1999/xlink" xmlns="http://www.w3.org/2000/svg"><clipPath id="p.0"><path d="m0 0l640.0 0l0 320.0l-640.0 0l0 -320.0z" clip-rule="nonzero"/></clipPath><g clip-path="url(#p.0)"><path fill="#980000" d="m0 0l640.0 0l0 320.0l-640.0 0z" fill-rule="evenodd"/><path fill="#ffffff" d="m222.43979 -0.5409976c-12.337952 0 -22.669113 1.2776868 -30.9935 3.8330674c-8.324387 2.55538 -14.995056 6.2084894 -20.011978 10.959333c-5.0169373 4.750844 -8.565964 10.671401 -10.647049 17.761677c-2.0439453 7.054283 -3.0659027 15.116322 -3.0659027 24.186115l0 59.709473c0 3.9590302 -0.63175964 7.88208 -1.8952942 11.7691345c-1.2635193 3.8510513 -3.2145538 7.2702255 -5.8530884 10.2575c-2.6013641 2.9872742 -5.8530884 5.434677 -9.755142 7.342209c-3.8648834 1.8715515 -8.528778 2.8073273 -13.991661 2.8073273l0 23.862198c5.462883 0 10.126778 0.9537506 13.991661 2.8612976c3.9020538 1.8715363 7.153778 4.300949 9.755142 7.2882233c2.6385345 2.9512787 4.589569 6.370453 5.8530884 10.257507c1.2635345 3.8870544 1.8952942 7.810089 1.8952942 11.7691345l0 59.709473c0 9.069794 1.0219574 17.131836 3.0659027 24.186127c2.0810852 7.090271 5.6301117 13.064819 10.647049 17.923615c5.016922 4.8588257 11.687592 8.511932 20.011978 10.959351c8.324387 2.4474182 18.655548 3.671112 30.9935 3.671112l1.3935852 0l0 -24.240112c-13.006866 0 -22.31607 -2.267456 -27.927582 -6.8023376c-5.5743713 -4.534912 -8.361557 -13.208801 -8.361557 -26.021667l0 -51.07158c0 -14.612442 -2.006775 -25.89569 -6.0203247 -33.849762c-4.01355 -7.954071 -9.662231 -14.144562 -16.946075 -18.571487c7.283844 -4.4269257 12.932526 -10.617416 16.946075 -18.571472c4.01355 -7.954071 6.0203247 -19.23732 6.0203247 -33.84977l0 -51.07157c0 -12.812885 2.7871857 -21.48677 8.361557 -26.02167c5.6115265 -4.534895 14.920731 -6.8023434 27.927582 -6.8023434l0 -24.240103z" fill-rule="evenodd"/><path fill="#ffffff" d="m324.83823 83.084656c-15.756897 0 -29.69281 0.9897537 -41.80777 2.9692764c-12.077789 1.9795227 -21.758636 3.8510666 -29.042465 5.6146317l0 167.52122l31.829636 0l0 -145.60257c1.1520386 -0.21594238 3.0287476 -0.5398636 5.630127 -0.9717636c2.6385498 -0.46788788 5.6115417 -0.8637848 8.918976 -1.187706c3.3074646 -0.3239212 6.7821655 -0.5938568 10.424072 -0.8098068c3.6791077 -0.25193787 7.228119 -0.3779068 10.647064 -0.3779068c8.435883 0 15.496735 1.0617447 21.182587 3.1852264c5.7230225 2.087494 10.294006 5.452675 13.712952 10.095543c3.4561157 4.642868 5.927429 10.725388 7.41391 18.247559c1.4865112 7.522171 2.2297668 16.591965 2.2297668 27.209381l0 90.212036l31.82965 0l0 -96.85242c0 -11.733139 -1.1520386 -22.458542 -3.4561157 -32.176178c-2.2669067 -9.7176285 -6.2061462 -18.049599 -11.817657 -24.99591c-5.5743713 -6.9823 -13.044037 -12.398979 -22.408966 -16.250046c-9.36496 -3.8870544 -21.126862 -5.8305817 -35.285767 -5.8305817z" fill-rule="evenodd"/><path fill="#ffffff" d="m418.68997 -0.5409976l0 24.240103c13.006866 0 22.297485 2.2674484 27.871857 6.8023434c5.6115417 4.5348988 8.417297 13.208784 8.417297 26.02167l0 51.07157c0 14.61245 1.9881897 25.895699 5.964569 33.84977c4.01355 7.954056 9.680817 14.1445465 17.001831 18.571472c-7.3210144 4.4269257 -12.988281 10.617416 -17.001831 18.571487c-3.9763794 7.954071 -5.964569 19.23732 -5.964569 33.849762l0 51.07158c0 12.812866 -2.8057556 21.486755 -8.417297 26.021667c-5.5743713 4.5348816 -14.86499 6.8023376 -27.871857 6.8023376l0 24.240112l1.3935852 0c12.337952 0 22.669128 -1.2236938 30.9935 -3.671112c8.324402 -2.4474182 14.995056 -6.100525 20.011993 -10.959351c5.0169373 -4.858795 8.547363 -10.8333435 10.591309 -17.923615c2.0810852 -7.054291 3.121643 -15.116333 3.121643 -24.186127l0 -59.709473c0 -3.9590454 0.6317444 -7.88208 1.8952637 -11.7691345c1.2635498 -3.8870544 3.195984 -7.3062286 5.7973633 -10.257507c2.6385193 -2.9872742 5.8902283 -5.416687 9.755127 -7.2882233c3.902069 -1.907547 8.584534 -2.8612976 14.047424 -2.8612976l0 -23.862198c-5.4628906 0 -10.145355 -0.93577576 -14.047424 -2.8073273c-3.8648682 -1.9075165 -7.116577 -4.3549194 -9.755127 -7.342209c-2.6013794 -2.987259 -4.533844 -6.406433 -5.7973633 -10.2575c-1.2635193 -3.8870544 -1.8952637 -7.8101044 -1.8952637 -11.7691345l0 -59.709473c0 -9.069794 -1.0405579 -17.131832 -3.121643 -24.186115c-2.0439453 -7.0902767 -5.5743713 -13.010834 -10.591309 -17.761677c-5.0169373 -4.750844 -11.687592 -8.403954 -20.011993 -10.959333c-8.324371 -2.5553803 -18.655548 -3.8330674 -30.9935 -3.8330674z" fill-rule="evenodd"/><path stroke="#980000" stroke-width="1.0" stroke-linejoin="round" stroke-linecap="butt" d="m222.43979 -0.5409976c-12.337952 0 -22.669113 1.2776868 -30.9935 3.8330674c-8.324387 2.55538 -14.995056 6.2084894 -20.011978 10.959333c-5.0169373 4.750844 -8.565964 10.671401 -10.647049 17.761677c-2.0439453 7.054283 -3.0659027 15.116322 -3.0659027 24.186115l0 59.709473c0 3.9590302 -0.63175964 7.88208 -1.8952942 11.7691345c-1.2635193 3.8510513 -3.2145538 7.2702255 -5.8530884 10.2575c-2.6013641 2.9872742 -5.8530884 5.434677 -9.755142 7.342209c-3.8648834 1.8715515 -8.528778 2.8073273 -13.991661 2.8073273l0 23.862198c5.462883 0 10.126778 0.9537506 13.991661 2.8612976c3.9020538 1.8715363 7.153778 4.300949 9.755142 7.2882233c2.6385345 2.9512787 4.589569 6.370453 5.8530884 10.257507c1.2635345 3.8870544 1.8952942 7.810089 1.8952942 11.7691345l0 59.709473c0 9.069794 1.0219574 17.131836 3.0659027 24.186127c2.0810852 7.090271 5.6301117 13.064819 10.647049 17.923615c5.016922 4.8588257 11.687592 8.511932 20.011978 10.959351c8.324387 2.4474182 18.655548 3.671112 30.9935 3.671112l1.3935852 0l0 -24.240112c-13.006866 0 -22.31607 -2.267456 -27.927582 -6.8023376c-5.5743713 -4.534912 -8.361557 -13.208801 -8.361557 -26.021667l0 -51.07158c0 -14.612442 -2.006775 -25.89569 -6.0203247 -33.849762c-4.01355 -7.954071 -9.662231 -14.144562 -16.946075 -18.571487c7.283844 -4.4269257 12.932526 -10.617416 16.946075 -18.571472c4.01355 -7.954071 6.0203247 -19.23732 6.0203247 -33.84977l0 -51.07157c0 -12.812885 2.7871857 -21.48677 8.361557 -26.02167c5.6115265 -4.534895 14.920731 -6.8023434 27.927582 -6.8023434l0 -24.240103z" fill-rule="evenodd"/><path stroke="#980000" stroke-width="1.0" stroke-linejoin="round" stroke-linecap="butt" d="m324.83823 83.084656c-15.756897 0 -29.69281 0.9897537 -41.80777 2.9692764c-12.077789 1.9795227 -21.758636 3.8510666 -29.042465 5.6146317l0 167.52122l31.829636 0l0 -145.60257c1.1520386 -0.21594238 3.0287476 -0.5398636 5.630127 -0.9717636c2.6385498 -0.46788788 5.6115417 -0.8637848 8.918976 -1.187706c3.3074646 -0.3239212 6.7821655 -0.5938568 10.424072 -0.8098068c3.6791077 -0.25193787 7.228119 -0.3779068 10.647064 -0.3779068c8.435883 0 15.496735 1.0617447 21.182587 3.1852264c5.7230225 2.087494 10.294006 5.452675 13.712952 10.095543c3.4561157 4.642868 5.927429 10.725388 7.41391 18.247559c1.4865112 7.522171 2.2297668 16.591965 2.2297668 27.209381l0 90.212036l31.82965 0l0 -96.85242c0 -11.733139 -1.1520386 -22.458542 -3.4561157 -32.176178c-2.2669067 -9.7176285 -6.2061462 -18.049599 -11.817657 -24.99591c-5.5743713 -6.9823 -13.044037 -12.398979 -22.408966 -16.250046c-9.36496 -3.8870544 -21.126862 -5.8305817 -35.285767 -5.8305817z" fill-rule="evenodd"/><path stroke="#980000" stroke-width="1.0" stroke-linejoin="round" stroke-linecap="butt" d="m418.68997 -0.5409976l0 24.240103c13.006866 0 22.297485 2.2674484 27.871857 6.8023434c5.6115417 4.5348988 8.417297 13.208784 8.417297 26.02167l0 51.07157c0 14.61245 1.9881897 25.895699 5.964569 33.84977c4.01355 7.954056 9.680817 14.1445465 17.001831 18.571472c-7.3210144 4.4269257 -12.988281 10.617416 -17.001831 18.571487c-3.9763794 7.954071 -5.964569 19.23732 -5.964569 33.849762l0 51.07158c0 12.812866 -2.8057556 21.486755 -8.417297 26.021667c-5.5743713 4.5348816 -14.86499 6.8023376 -27.871857 6.8023376l0 24.240112l1.3935852 0c12.337952 0 22.669128 -1.2236938 30.9935 -3.671112c8.324402 -2.4474182 14.995056 -6.100525 20.011993 -10.959351c5.0169373 -4.858795 8.547363 -10.8333435 10.591309 -17.923615c2.0810852 -7.054291 3.121643 -15.116333 3.121643 -24.186127l0 -59.709473c0 -3.9590454 0.6317444 -7.88208 1.8952637 -11.7691345c1.2635498 -3.8870544 3.195984 -7.3062286 5.7973633 -10.257507c2.6385193 -2.9872742 5.8902283 -5.416687 9.755127 -7.2882233c3.902069 -1.907547 8.584534 -2.8612976 14.047424 -2.8612976l0 -23.862198c-5.4628906 0 -10.145355 -0.93577576 -14.047424 -2.8073273c-3.8648682 -1.9075165 -7.116577 -4.3549194 -9.755127 -7.342209c-2.6013794 -2.987259 -4.533844 -6.406433 -5.7973633 -10.2575c-1.2635193 -3.8870544 -1.8952637 -7.8101044 -1.8952637 -11.7691345l0 -59.709473c0 -9.069794 -1.0405579 -17.131832 -3.121643 -24.186115c-2.0439453 -7.0902767 -5.5743713 -13.010834 -10.591309 -17.761677c-5.0169373 -4.750844 -11.687592 -8.403954 -20.011993 -10.959333c-8.324371 -2.5553803 -18.655548 -3.8330674 -30.9935 -3.8330674z" fill-rule="evenodd"/><path fill="#ffffff" d="m242.96848 292.13034c-2.8464355 0 -5.363922 0.116485596 -7.5524597 0.3494568c-2.1818237 0.23300171 -3.9306488 0.4532776 -5.2464447 0.66085815l0 19.717041l5.749939 0l0 -17.137238c0.20811462 -0.025421143 0.5471344 -0.063568115 1.0170593 -0.11437988c0.47665405 -0.05508423 1.0137177 -0.10168457 1.611206 -0.13980103c0.59747314 -0.038116455 1.225174 -0.069885254 1.8830719 -0.0953064c0.6646271 -0.029663086 1.3057404 -0.04449463 1.9233704 -0.04449463c1.5239105 0 2.7994385 0.12496948 3.8265839 0.37490845c1.033844 0.24569702 1.8595734 0.64178467 2.4772034 1.1882324c0.6243439 0.54644775 1.0707703 1.2623596 1.3393097 2.147705c0.26852417 0.885376 0.4028015 1.9528809 0.4028015 3.2025146l0 10.617859l5.749939 0l0 -11.399414c0 -1.3809814 -0.20811462 -2.643341 -0.6243439 -3.7871094c-0.40950012 -1.1437378 -1.121109 -2.1244202 -2.1348267 -2.941986c-1.0069885 -0.82180786 -2.356369 -1.4593506 -4.048126 -1.9125977c-1.691742 -0.45751953 -3.816513 -0.6862488 -6.374283 -0.6862488z" fill-rule="evenodd"/><path fill="#ffffff" d="m268.52255 284.12405c-1.0271301 0 -1.9032288 0.21603394 -2.6282654 0.6481323c-0.71832275 0.42782593 -1.0774841 1.006073 -1.0774841 1.7346802c0 0.7286072 0.35916138 1.30896 1.0774841 1.7410583c0.7250366 0.42782593 1.6011353 0.64175415 2.6282654 0.64175415c1.033844 0 1.9099426 -0.21392822 2.6282654 -0.64175415c0.7250366 -0.4320984 1.0875549 -1.0124512 1.0875549 -1.7410583c0 -0.7286072 -0.3625183 -1.3068542 -1.0875549 -1.7346802c-0.71832275 -0.4320984 -1.5944214 -0.6481323 -2.6282654 -0.6481323zm-2.8397217 8.432007l0 20.301636l5.749939 0l0 -20.301636z" fill-rule="evenodd"/><path fill="#ffffff" d="m295.746 295.36462c1.7320251 0 3.0813904 0.040222168 4.048126 0.12072754c0.9734192 0.07623291 1.7488098 0.16732788 2.3261414 0.27322388l0 12.80368c-0.704895 0.36431885 -1.7185974 0.71591187 -3.0411072 1.0548096c-1.3158264 0.3388977 -2.7558289 0.5083313 -4.320038 0.5083313c-1.6514587 0 -3.0646057 -0.18850708 -4.239441 -0.56552124c-1.1748352 -0.37701416 -2.1348267 -0.8980713 -2.880005 -1.5631409c-0.73846436 -0.6650696 -1.2755432 -1.4466248 -1.611206 -2.344696c-0.32894897 -0.8980408 -0.4934082 -1.8659973 -0.4934082 -2.9038696c0 -2.367981 0.9264221 -4.189514 2.7792969 -5.4645996c1.8595886 -1.2792969 4.336792 -1.9189453 7.4316406 -1.9189453zm-0.060424805 -3.2342834c-2.4772034 0 -4.706024 0.24780273 -6.6864624 0.7434387c-1.9804077 0.49136353 -3.6721802 1.1924438 -5.0752563 2.103241c-1.3963623 0.9107666 -2.4772034 2.0248413 -3.2425232 3.3422852c-0.7653198 1.3132019 -1.1479797 2.7894897 -1.1479797 4.4288635c0 1.5335083 0.31887817 2.9526062 0.95666504 4.257324c0.6444702 1.3004761 1.5843201 2.4188232 2.81958 3.355011c1.2352295 0.93618774 2.7490845 1.6647949 4.5415344 2.185852c1.7991638 0.5210266 3.8534546 0.7815552 6.1628113 0.7815552c1.8595886 0 3.4976501 -0.15673828 4.914154 -0.47021484c1.4232178 -0.31347656 2.4872742 -0.6121216 3.1921692 -0.89593506l0 8.1206665l5.749939 0l0 -26.903656c-1.3560791 -0.20758057 -3.0578918 -0.4342041 -5.1054688 -0.6799011c-2.0408325 -0.24569702 -4.4005737 -0.36853027 -7.0791626 -0.36853027z" fill-rule="evenodd"/><path fill="#ffffff" d="m323.4063 282.5609l-5.7600403 0.62905884l0 24.355621c0 1.9274292 0.7418213 3.3465576 2.2254639 4.257324c1.4903564 0.9107666 4.007843 1.391571 7.55249 1.4423828l0.8055725 -3.0436401c-0.9062805 -0.07626343 -1.6716003 -0.17370605 -2.295929 -0.29229736c-0.61764526 -0.118621826 -1.1110535 -0.29440308 -1.4802856 -0.5274048c-0.36923218 -0.23297119 -0.63778687 -0.54434204 -0.805603 -0.9340515c-0.16113281 -0.38974 -0.2416687 -0.885376 -0.2416687 -1.486908l0 -24.400085z" fill-rule="evenodd"/><path fill="#ffffff" d="m347.96 295.25024c2.8061523 0 5.0249023 0.67141724 6.65625 2.0142822c1.6313171 1.3385925 2.446991 3.153778 2.446991 5.445526c0 2.287506 -0.8156738 4.1026917 -2.446991 5.4455566c-1.6313477 1.3385925 -3.8500977 2.007904 -6.65625 2.007904c-2.7994385 0 -5.0148315 -0.6693115 -6.646179 -2.007904c-1.6313171 -1.342865 -2.446991 -3.1580505 -2.446991 -5.4455566c0 -2.291748 0.8156738 -4.1069336 2.446991 -5.445526c1.6313477 -1.342865 3.8467407 -2.0142822 6.646179 -2.0142822zm0 -3.2025146c-2.1818237 0 -4.202545 0.2541504 -6.0621033 0.7624817c-1.8528748 0.5083618 -3.450653 1.2306213 -4.7933044 2.166809c-1.335968 0.9361572 -2.3765259 2.0629883 -3.121704 3.3804016c-0.7451782 1.3132019 -1.1177673 2.7640991 -1.1177673 4.3526306c0 1.6097412 0.3725891 3.0669556 1.1177673 4.371704c0.7451782 1.3004761 1.7857361 2.4188232 3.121704 3.355011c1.3426514 0.93618774 2.9404297 1.6584473 4.7933044 2.1667786c1.8595886 0.5083313 3.8802795 0.7624817 6.0621033 0.7624817c2.1885376 0 4.2092285 -0.2541504 6.0621033 -0.7624817c1.8595886 -0.5083313 3.457367 -1.2305908 4.7933044 -2.1667786c1.3426514 -0.93618774 2.3865967 -2.054535 3.131775 -3.355011c0.7451782 -1.3047485 1.1177368 -2.761963 1.1177368 -4.371704c0 -1.5885315 -0.3725586 -3.0394287 -1.1177368 -4.3526306c-0.7451782 -1.3174133 -1.7891235 -2.4442444 -3.131775 -3.3804016c-1.3359375 -0.93618774 -2.9337158 -1.6584473 -4.7933044 -2.166809c-1.8528748 -0.5083313 -3.8735657 -0.7624817 -6.0621033 -0.7624817z" fill-rule="evenodd"/><path fill="#ffffff" d="m366.52985 292.55606c1.6044922 3.981964 3.3130188 7.6907043 5.1256104 11.12619c1.8193054 3.4354858 3.678894 6.493988 5.578766 9.175446l5.0047607 0c1.1546936 -1.8723755 2.369812 -4.0115967 3.6453247 -6.4177246c1.2822571 -2.4103699 2.4604492 -4.916046 3.5345764 -7.5169983c1.0741272 2.6009827 2.2590027 5.1066284 3.5546875 7.5169983c1.3023682 2.406128 2.5309143 4.545349 3.685608 6.4177246l5.0047607 0c1.8998718 -2.6814575 3.7561035 -5.7399597 5.568695 -9.175446c1.8193054 -3.4355164 3.531189 -7.144226 5.135681 -11.12619l-5.941284 0c-0.40951538 1.2242432 -0.9029541 2.5522766 -1.4802856 3.9840698c-0.57733154 1.4318237 -1.1983337 2.863617 -1.8629456 4.2954407c-0.65789795 1.4318237 -1.3258667 2.810669 -2.0039062 4.136566c-0.67807007 1.3259277 -1.3292542 2.484497 -1.9535828 3.475769c-0.69818115 -1.2242432 -1.3896484 -2.518402 -2.0744019 -3.8824158c-0.67807007 -1.3682861 -1.3258972 -2.7492676 -1.943512 -4.1429443c-0.61761475 -1.3936768 -1.1949768 -2.7598267 -1.7320251 -4.0984497c-0.53707886 -1.338623 -0.9902344 -2.594635 -1.3594666 -3.768036l-4.763092 0c-0.41619873 1.1734009 -0.9029236 2.4294128 -1.460144 3.768036c-0.5504761 1.338623 -1.1378784 2.704773 -1.7622375 4.0984497c-0.61761475 1.3936768 -1.2687988 2.7746582 -1.9535522 4.1429443c-0.67807007 1.3640137 -1.3661804 2.6581726 -2.0643616 3.8824158c-0.61761475 -0.991272 -1.2788696 -2.1498413 -1.9837646 -3.475769c-0.69818115 -1.3258972 -1.3695068 -2.7047424 -2.0140076 -4.136566c-0.63775635 -1.4318237 -1.2453003 -2.863617 -1.8226624 -4.2954407c-0.57733154 -1.4317932 -1.0707703 -2.7598267 -1.4802856 -3.9840698z" fill-rule="evenodd"/><path stroke="#ffffff" stroke-width="1.0" stroke-linejoin="round" stroke-linecap="butt" d="m242.96848 292.13034c-2.8464355 0 -5.363922 0.116485596 -7.5524597 0.3494568c-2.1818237 0.23300171 -3.9306488 0.4532776 -5.2464447 0.66085815l0 19.717041l5.749939 0l0 -17.137238c0.20811462 -0.025421143 0.5471344 -0.063568115 1.0170593 -0.11437988c0.47665405 -0.05508423 1.0137177 -0.10168457 1.611206 -0.13980103c0.59747314 -0.038116455 1.225174 -0.069885254 1.8830719 -0.0953064c0.6646271 -0.029663086 1.3057404 -0.04449463 1.9233704 -0.04449463c1.5239105 0 2.7994385 0.12496948 3.8265839 0.37490845c1.033844 0.24569702 1.8595734 0.64178467 2.4772034 1.1882324c0.6243439 0.54644775 1.0707703 1.2623596 1.3393097 2.147705c0.26852417 0.885376 0.4028015 1.9528809 0.4028015 3.2025146l0 10.617859l5.749939 0l0 -11.399414c0 -1.3809814 -0.20811462 -2.643341 -0.6243439 -3.7871094c-0.40950012 -1.1437378 -1.121109 -2.1244202 -2.1348267 -2.941986c-1.0069885 -0.82180786 -2.356369 -1.4593506 -4.048126 -1.9125977c-1.691742 -0.45751953 -3.816513 -0.6862488 -6.374283 -0.6862488z" fill-rule="evenodd"/><path stroke="#ffffff" stroke-width="1.0" stroke-linejoin="round" stroke-linecap="butt" d="m268.52255 284.12405c-1.0271301 0 -1.9032288 0.21603394 -2.6282654 0.6481323c-0.71832275 0.42782593 -1.0774841 1.006073 -1.0774841 1.7346802c0 0.7286072 0.35916138 1.30896 1.0774841 1.7410583c0.7250366 0.42782593 1.6011353 0.64175415 2.6282654 0.64175415c1.033844 0 1.9099426 -0.21392822 2.6282654 -0.64175415c0.7250366 -0.4320984 1.0875549 -1.0124512 1.0875549 -1.7410583c0 -0.7286072 -0.3625183 -1.3068542 -1.0875549 -1.7346802c-0.71832275 -0.4320984 -1.5944214 -0.6481323 -2.6282654 -0.6481323zm-2.8397217 8.432007l0 20.301636l5.749939 0l0 -20.301636z" fill-rule="evenodd"/><path stroke="#ffffff" stroke-width="1.0" stroke-linejoin="round" stroke-linecap="butt" d="m295.746 295.36462c1.7320251 0 3.0813904 0.040222168 4.048126 0.12072754c0.9734192 0.07623291 1.7488098 0.16732788 2.3261414 0.27322388l0 12.80368c-0.704895 0.36431885 -1.7185974 0.71591187 -3.0411072 1.0548096c-1.3158264 0.3388977 -2.7558289 0.5083313 -4.320038 0.5083313c-1.6514587 0 -3.0646057 -0.18850708 -4.239441 -0.56552124c-1.1748352 -0.37701416 -2.1348267 -0.8980713 -2.880005 -1.5631409c-0.73846436 -0.6650696 -1.2755432 -1.4466248 -1.611206 -2.344696c-0.32894897 -0.8980408 -0.4934082 -1.8659973 -0.4934082 -2.9038696c0 -2.367981 0.9264221 -4.189514 2.7792969 -5.4645996c1.8595886 -1.2792969 4.336792 -1.9189453 7.4316406 -1.9189453zm-0.060424805 -3.2342834c-2.4772034 0 -4.706024 0.24780273 -6.6864624 0.7434387c-1.9804077 0.49136353 -3.6721802 1.1924438 -5.0752563 2.103241c-1.3963623 0.9107666 -2.4772034 2.0248413 -3.2425232 3.3422852c-0.7653198 1.3132019 -1.1479797 2.7894897 -1.1479797 4.4288635c0 1.5335083 0.31887817 2.9526062 0.95666504 4.257324c0.6444702 1.3004761 1.5843201 2.4188232 2.81958 3.355011c1.2352295 0.93618774 2.7490845 1.6647949 4.5415344 2.185852c1.7991638 0.5210266 3.8534546 0.7815552 6.1628113 0.7815552c1.8595886 0 3.4976501 -0.15673828 4.914154 -0.47021484c1.4232178 -0.31347656 2.4872742 -0.6121216 3.1921692 -0.89593506l0 8.1206665l5.749939 0l0 -26.903656c-1.3560791 -0.20758057 -3.0578918 -0.4342041 -5.1054688 -0.6799011c-2.0408325 -0.24569702 -4.4005737 -0.36853027 -7.0791626 -0.36853027z" fill-rule="evenodd"/><path stroke="#ffffff" stroke-width="1.0" stroke-linejoin="round" stroke-linecap="butt" d="m323.4063 282.5609l-5.7600403 0.62905884l0 24.355621c0 1.9274292 0.7418213 3.3465576 2.2254639 4.257324c1.4903564 0.9107666 4.007843 1.391571 7.55249 1.4423828l0.8055725 -3.0436401c-0.9062805 -0.07626343 -1.6716003 -0.17370605 -2.295929 -0.29229736c-0.61764526 -0.118621826 -1.1110535 -0.29440308 -1.4802856 -0.5274048c-0.36923218 -0.23297119 -0.63778687 -0.54434204 -0.805603 -0.9340515c-0.16113281 -0.38974 -0.2416687 -0.885376 -0.2416687 -1.486908l0 -24.400085z" fill-rule="evenodd"/><path stroke="#ffffff" stroke-width="1.0" stroke-linejoin="round" stroke-linecap="butt" d="m347.96 295.25024c2.8061523 0 5.0249023 0.67141724 6.65625 2.0142822c1.6313171 1.3385925 2.446991 3.153778 2.446991 5.445526c0 2.287506 -0.8156738 4.1026917 -2.446991 5.4455566c-1.6313477 1.3385925 -3.8500977 2.007904 -6.65625 2.007904c-2.7994385 0 -5.0148315 -0.6693115 -6.646179 -2.007904c-1.6313171 -1.342865 -2.446991 -3.1580505 -2.446991 -5.4455566c0 -2.291748 0.8156738 -4.1069336 2.446991 -5.445526c1.6313477 -1.342865 3.8467407 -2.0142822 6.646179 -2.0142822zm0 -3.2025146c-2.1818237 0 -4.202545 0.2541504 -6.0621033 0.7624817c-1.8528748 0.5083618 -3.450653 1.2306213 -4.7933044 2.166809c-1.335968 0.9361572 -2.3765259 2.0629883 -3.121704 3.3804016c-0.7451782 1.3132019 -1.1177673 2.7640991 -1.1177673 4.3526306c0 1.6097412 0.3725891 3.0669556 1.1177673 4.371704c0.7451782 1.3004761 1.7857361 2.4188232 3.121704 3.355011c1.3426514 0.93618774 2.9404297 1.6584473 4.7933044 2.1667786c1.8595886 0.5083313 3.8802795 0.7624817 6.0621033 0.7624817c2.1885376 0 4.2092285 -0.2541504 6.0621033 -0.7624817c1.8595886 -0.5083313 3.457367 -1.2305908 4.7933044 -2.1667786c1.3426514 -0.93618774 2.3865967 -2.054535 3.131775 -3.355011c0.7451782 -1.3047485 1.1177368 -2.761963 1.1177368 -4.371704c0 -1.5885315 -0.3725586 -3.0394287 -1.1177368 -4.3526306c-0.7451782 -1.3174133 -1.7891235 -2.4442444 -3.131775 -3.3804016c-1.3359375 -0.93618774 -2.9337158 -1.6584473 -4.7933044 -2.166809c-1.8528748 -0.5083313 -3.8735657 -0.7624817 -6.0621033 -0.7624817z" fill-rule="evenodd"/><path stroke="#ffffff" stroke-width="1.0" stroke-linejoin="round" stroke-linecap="butt" d="m366.52985 292.55606c1.6044922 3.981964 3.3130188 7.6907043 5.1256104 11.12619c1.8193054 3.4354858 3.678894 6.493988 5.578766 9.175446l5.0047607 0c1.1546936 -1.8723755 2.369812 -4.0115967 3.6453247 -6.4177246c1.2822571 -2.4103699 2.4604492 -4.916046 3.5345764 -7.5169983c1.0741272 2.6009827 2.2590027 5.1066284 3.5546875 7.5169983c1.3023682 2.406128 2.5309143 4.545349 3.685608 6.4177246l5.0047607 0c1.8998718 -2.6814575 3.7561035 -5.7399597 5.568695 -9.175446c1.8193054 -3.4355164 3.531189 -7.144226 5.135681 -11.12619l-5.941284 0c-0.40951538 1.2242432 -0.9029541 2.5522766 -1.4802856 3.9840698c-0.57733154 1.4318237 -1.1983337 2.863617 -1.8629456 4.2954407c-0.65789795 1.4318237 -1.3258667 2.810669 -2.0039062 4.136566c-0.67807007 1.3259277 -1.3292542 2.484497 -1.9535828 3.475769c-0.69818115 -1.2242432 -1.3896484 -2.518402 -2.0744019 -3.8824158c-0.67807007 -1.3682861 -1.3258972 -2.7492676 -1.943512 -4.1429443c-0.61761475 -1.3936768 -1.1949768 -2.7598267 -1.7320251 -4.0984497c-0.53707886 -1.338623 -0.9902344 -2.594635 -1.3594666 -3.768036l-4.763092 0c-0.41619873 1.1734009 -0.9029236 2.4294128 -1.460144 3.768036c-0.5504761 1.338623 -1.1378784 2.704773 -1.7622375 4.0984497c-0.61761475 1.3936768 -1.2687988 2.7746582 -1.9535522 4.1429443c-0.67807007 1.3640137 -1.3661804 2.6581726 -2.0643616 3.8824158c-0.61761475 -0.991272 -1.2788696 -2.1498413 -1.9837646 -3.475769c-0.69818115 -1.3258972 -1.3695068 -2.7047424 -2.0140076 -4.136566c-0.63775635 -1.4318237 -1.2453003 -2.863617 -1.8226624 -4.2954407c-0.57733154 -1.4317932 -1.0707703 -2.7598267 -1.4802856 -3.9840698z" fill-rule="evenodd"/></g></svg>